<svg width="88" height="115" viewBox="0 0 88 115" fill="none" xmlns="http://www.w3.org/2000/svg">
<path d="M39.1168 77.7803C39.1168 77.7803 39.2065 97.1914 38.5115 104.003C38.5115 104.003 41.0808 107.73 46.9454 104.786C46.9454 104.786 45.4498 87.2557 45.9253 78.4753C45.9165 78.6379 43.3737 74.4232 39.1168 77.7803Z" fill="url(#paint0_linear_8301_125)"/>
<path d="M83.0786 78.6936C83.0874 78.531 83.0962 78.3684 82.9337 78.3596C82.2748 78.487 81.6158 78.6144 81.1195 78.7506C78.194 78.5922 75.3037 77.7833 72.8001 75.8538C72.1765 75.3308 71.3902 74.799 70.6128 74.1046C73.3494 74.7421 76.1211 74.7291 78.2604 74.3557C78.4229 74.3645 78.4406 74.0393 78.2868 73.8679C76.9954 73.6349 75.7128 73.2393 74.4214 73.0063C76.5519 72.7955 78.3925 71.9167 79.4822 69.8557C79.6535 69.7019 79.3373 69.5217 79.3373 69.5217C77.8481 69.9303 76.3765 70.0137 74.7513 69.9256C71.0748 68.585 66.8539 65.2579 64.7106 62.6956C64.412 62.1902 63.942 61.8386 63.6434 61.3332C66.5953 61.0039 70.0788 59.8879 71.6913 57.2029C72.0427 56.7327 71.7617 55.9021 71.1028 56.0295C70.7689 56.1745 70.4351 56.3195 70.1012 56.4645C69.7762 56.4469 69.4423 56.5919 69.2798 56.5831C66.8419 56.451 64.2767 55.6598 62.0629 54.3984C63.0469 54.2886 64.0397 54.0162 64.8875 53.4098C65.3839 53.2736 65.7178 53.1286 66.0693 52.6584C66.2406 52.5046 66.0869 52.3332 65.9244 52.3244C65.9244 52.3244 65.9244 52.3244 66.0957 52.1706C66.267 52.0168 66.1133 51.8454 65.9508 51.8366C64.8043 51.9376 63.8291 51.8848 62.8627 51.6694C61.7515 51.1199 60.8203 50.2541 59.8892 49.3883C62.3183 49.6829 64.9276 49.6612 66.777 48.6198C66.9395 48.6286 66.9395 48.6286 67.1021 48.6374C67.4271 48.655 67.6073 48.3386 67.4623 48.0046C67.6337 47.8508 67.805 47.697 67.9675 47.7058C68.1389 47.552 67.994 47.218 67.8314 47.2092C67.3439 47.1828 66.6938 47.1476 66.2062 47.1212C63.171 45.9783 60.3512 43.8687 57.6939 41.7678C55.6603 40.19 54.2944 38.3221 53.0999 36.3005C56.324 36.9644 59.7635 36.6614 62.1006 35.6465C62.2631 35.6553 62.2719 35.4927 62.1182 35.3213C62.1182 35.3213 62.1182 35.3213 61.9556 35.3125C59.5353 34.8552 57.2207 32.4468 55.3497 30.8777C54.726 30.3547 54.2648 29.8405 53.8036 29.3263C57.2559 31.7964 61.4024 33.4886 63.8187 31.0103C63.99 30.8565 63.9988 30.6939 63.8363 30.6851C51.5811 28.2275 45.2706 15.3287 41.2442 2.39055C41.1169 1.73135 40.3043 1.68733 40.0977 2.49153C40.0801 2.81673 40.0625 3.14193 40.0449 3.46713C39.7286 3.28692 39.2234 3.58572 39.0345 4.06472C37.7158 10.3533 36.3219 21.041 29.7064 22.8026C29.5438 22.7938 29.6887 23.1278 29.6887 23.1278C30.6815 22.8555 31.8456 22.4293 32.8736 21.5065C30.242 24.9517 26.4374 28.9856 22.5103 29.2621C22.1853 29.2445 22.15 29.8949 22.4751 29.9125C25.2469 29.8996 27.8913 29.2274 30.246 27.8873C28.3085 30.5547 26.0635 32.8792 23.3838 34.2018C22.8786 34.5006 23.1684 35.1686 23.6648 35.0324C26.4894 34.0438 29.1779 32.5587 31.4229 30.2341C31.234 30.7131 31.0538 31.0295 30.7023 31.4997C30.5222 31.8161 30.1795 32.1237 29.9906 32.6027C27.5126 36.2193 23.9675 38.4734 20.0316 38.9125C19.544 38.8861 19.6625 39.7079 19.9875 39.7255C21.4415 39.9674 22.7505 39.8752 24.0771 39.4578C21.8586 41.2946 19.1789 42.6171 16.5961 42.1511C16.271 42.1335 16.2446 42.6213 16.5609 42.8015C20.2373 44.1422 23.3958 43.0086 26.6071 40.8995C22.7497 45.909 17.8251 49.5561 11.6402 49.3842C11.3151 49.3666 11.2975 49.6918 11.2799 50.017C10.7923 49.9906 10.5946 50.6322 11.0646 50.9838C14.6882 53.3001 18.58 53.674 22.5247 53.0722C22.1821 53.3798 21.8306 53.85 21.3254 54.1488C17.7362 57.216 13.8659 59.4525 9.43368 60.0279C9.27115 60.0191 9.09981 60.1728 9.0822 60.498C8.59462 60.4716 8.26956 60.454 7.77317 60.5902C7.12306 60.555 7.06142 61.6932 7.70272 61.891C12.1918 63.2757 16.9227 63.2058 21.5528 61.9889C21.2013 62.4591 20.841 63.0919 20.4895 63.5621L20.3182 63.7159C17.757 65.8602 14.7875 66.5148 12.0725 68.4877C11.9012 68.6415 12.0373 69.1381 12.2087 68.9843C14.3743 68.1232 16.5312 67.4246 18.5432 66.392C17.6601 67.6488 16.7858 68.743 15.7402 69.991C12.7835 73.4186 8.4385 78.4017 4.33128 78.9946C4.00622 78.977 3.82608 79.2934 3.80847 79.6186C3.16717 79.4208 2.6972 79.0692 2.0647 78.7088C1.74845 78.5286 1.39698 78.9988 1.54189 79.3328C3.63233 82.8707 9.19349 82.5196 12.4705 82.2078C14.1045 82.1332 16.2526 81.5973 18.2558 80.7273C16.7138 82.1115 14.8731 82.9903 13.195 83.8778C12.8612 84.0228 12.9885 84.682 13.3223 84.537C13.9901 84.247 14.6578 83.957 15.3255 83.6671C12.4216 86.119 8.92048 87.5602 5.47217 88.0257L5.30965 88.0169C4.98459 87.9993 4.66834 87.8191 4.34329 87.8015C4.02704 87.6213 3.82929 88.2629 4.14554 88.4431C11.0413 93.5458 20.7449 91.9514 27.5719 86.2873C26.6888 87.5441 25.652 88.6295 24.3165 89.2094C24.154 89.2006 24.1364 89.5258 24.1276 89.6885C22.9635 90.1146 21.7994 90.5408 20.4639 91.1208C19.9587 91.4196 20.0684 92.404 20.5648 92.2678C25.0059 91.5299 29.4382 90.9546 33.4885 88.4016C35.0129 87.3426 36.3836 86.1122 37.7631 84.7193C36.8624 86.3013 35.9617 87.8832 34.8984 89.4564C34.8896 89.619 34.8808 89.7816 35.0522 89.6278C37.1522 86.9693 39.4148 84.3195 40.7374 80.9665C40.6846 81.9421 40.6317 82.9177 40.5789 83.8933C40.2755 86.4861 40.4332 89.5931 39.6421 92.1595C39.2643 93.1175 38.8952 93.9129 38.3547 94.8621C38.3459 95.0247 38.3371 95.1873 38.5085 95.0335C39.8527 94.291 40.7182 93.3594 41.6101 91.94C43.2049 89.5802 45.261 87.7346 46.6933 85.366C47.0448 84.8958 47.2337 84.4168 47.594 83.784C47.361 85.076 46.9655 86.3592 46.4075 87.6336C46.3986 87.7962 46.5524 87.9676 46.5612 87.805C47.642 85.9066 48.2353 83.9818 48.6836 81.7231C51.0727 85.7663 54.0198 88.5352 57.2656 91.8094C57.4193 91.9808 57.5994 91.6644 57.4369 91.6556C57.1295 91.3128 56.9845 90.9788 56.6771 90.636C57.1383 91.1502 57.5994 91.6645 58.2231 92.1875C58.3768 92.3589 58.5482 92.2051 58.3944 92.0337C57.2263 89.5242 56.3921 86.8698 55.549 84.378C62.5681 87.2043 71.7177 89.8199 77.5519 84.4282C77.8945 84.1206 77.7672 83.4614 77.2708 83.5976C76.6119 83.7249 75.953 83.8523 75.3029 83.8171C73.5063 83.8829 71.8986 83.4697 70.3086 82.7312C74.2092 82.9425 78.1627 82.1782 80.9305 79.2296C81.2644 79.0846 81.4445 78.7682 81.7784 78.6232C83.061 79.0188 83.0698 78.8562 83.0786 78.6936C83.0786 78.6936 82.9161 78.6848 83.0786 78.6936Z" fill="url(#paint1_linear_8301_125)"/>
<path opacity="0.5" d="M16.8684 43.1443C20.5449 44.485 23.7034 43.3514 26.9147 41.2423C25.3463 43.1143 23.7779 44.9862 21.9108 46.3528C21.0541 47.1218 20.0525 47.5568 19.0421 48.1544C19.5385 48.0182 20.1975 47.8908 20.685 47.9172C22.3367 47.5174 23.8259 47.1089 25.3415 46.2125C26.8483 45.4787 29.9147 43.0355 31.1228 41.7964C30.2966 45.0132 27.1157 49.5701 27.4583 49.2625C30.8586 46.6744 31.9218 45.1012 33.7232 41.9372C33.8193 46.1824 33.419 50.5638 33.8401 54.8267C33.8137 55.3145 33.6072 56.1187 33.9498 55.8111C35.1668 54.4093 39.5126 43.3923 40.2331 42.1267C41.2035 45.2778 44.1546 50.9822 44.1722 50.657C44.7919 48.2444 44.4453 45.6164 44.2611 42.9972C46.2771 44.9002 51.526 47.3045 51.2274 46.7991C47.683 43.0195 44.2179 37.7764 43.5598 31.8699C43.5862 31.3821 42.4477 37.3543 42.1354 40.1097C40.3348 37.2399 39.7736 29.5449 39.5846 30.0239C37.7568 33.6756 36.8865 37.7054 35.3838 41.3748C34.8922 38.4128 35.9122 31.6188 35.5783 31.7638C34.5415 32.8492 33.8297 33.9522 32.9554 35.0463C32.2525 35.9867 31.3958 36.7557 30.3766 37.5159C31.4575 35.6175 33.1756 30.9813 32.9955 31.2977C31.5632 33.6663 29.1909 35.3317 26.6913 36.3378C26.1773 36.7992 25.5096 37.0892 24.9956 37.5506C23.4888 38.2844 21.9909 38.8556 20.348 39.0927C19.8604 39.0663 19.9789 39.8881 20.3039 39.9058C21.7579 40.1476 23.0669 40.0554 24.3935 39.638C22.175 41.4748 19.4953 42.7973 16.9125 42.3313C16.7411 42.4851 16.5434 43.1267 16.8684 43.1443Z" fill="url(#paint2_linear_8301_125)"/>
<path opacity="0.6" d="M22.7823 30.2553C22.9449 30.2641 22.9449 30.2641 23.1074 30.2729C23.2699 30.2817 23.4412 30.1279 23.4412 30.1279L23.6038 30.1367C27.5397 29.6976 30.9575 26.7843 34.3578 24.1961C33.8174 25.1453 32.9519 26.0769 32.2578 26.8547C31.9151 27.1623 32.2049 27.8303 32.6925 27.8567C35.1656 27.3383 37.5555 25.3478 39.3041 23.1594C39.0799 24.2888 38.8557 25.4182 38.7941 26.5564C38.7677 27.0442 39.409 27.242 39.5891 26.9256C40.6523 25.3524 41.2456 23.4276 41.9926 21.6742C42.7083 23.5069 43.2528 25.4933 44.4649 27.1897C44.7724 27.5325 45.1062 27.3875 45.1326 26.8997C45.2119 25.4363 44.9661 23.9553 44.8829 22.4831C46.3016 23.3753 47.7027 24.5927 48.7699 25.9552C49.0773 26.298 49.6002 25.674 49.2927 25.3312C47.0045 22.4349 45.9157 18.4621 44.1415 15.1044C43.9966 14.7704 43.5002 14.9066 43.4826 15.2318C43.4297 16.2074 43.2143 17.1742 43.0078 17.9784C42.2744 16.471 42.0286 14.99 41.963 13.1926C41.9806 12.8674 41.5106 12.5158 41.3305 12.8322C40.4474 14.089 39.8893 15.3634 39.0062 16.6202C39.3273 13.7021 39.9646 10.9644 40.2768 8.20894C40.3825 6.25774 40.497 4.14393 40.4402 2.18393C40.2688 2.33772 40.2688 2.33772 40.26 2.50032C40.2424 2.82552 40.2248 3.15072 40.2072 3.47592C40.0447 3.46712 39.8821 3.45831 39.7196 3.44951C39.5483 3.60331 39.3769 3.75711 39.1968 4.07351C37.8782 10.3621 36.4843 21.0497 29.8687 22.8114C29.7062 22.8026 29.8511 23.1366 29.8511 23.1366C30.8439 22.8642 32.008 22.4381 33.036 21.5153C31.6301 23.3961 29.8903 25.4218 28.0144 26.951C26.3099 28.3264 24.6318 29.214 22.8352 29.2797C22.6726 29.2709 22.6726 29.2709 22.6638 29.4335C22.4661 30.0751 22.4573 30.2377 22.7823 30.2553Z" fill="url(#paint3_linear_8301_125)"/>
<path opacity="0.4" d="M63.9235 68.1976C62.3158 67.7844 60.8707 67.3799 59.4256 66.9755C57.8795 65.4241 56.1446 64.3517 54.5986 62.8002C53.0526 61.2488 52.0382 58.9108 50.4921 57.3593C50.1847 57.0165 49.6795 57.3153 49.8156 57.8119C49.9253 58.7963 49.9253 58.7963 50.035 59.7807C50.1535 60.6025 50.8164 63.4107 49.3056 61.2089C48.7083 60.1981 48.2824 59.0335 47.5138 58.1765C47.3601 58.0051 47.035 57.9875 47.0174 58.3127C46.288 59.7409 46.6876 61.3933 46.9334 62.8743C46.0463 61.1955 45.5106 59.0464 44.461 57.3588C44.3161 57.0248 43.9822 57.1698 43.8109 57.3236C42.8838 59.3934 43.0855 61.6874 43.1248 63.9726C42.4266 61.8148 42.0535 59.6746 41.5091 57.6882C41.3642 57.3542 41.0391 57.3366 40.859 57.653C39.7341 60.3643 39.2417 63.4361 38.4331 66.3277C38.2754 63.2207 38.4427 60.1313 38.61 57.0419C38.6276 56.7167 38.1489 56.5277 37.9687 56.8441C35.293 61.1023 33.2498 65.7208 31.5141 70.6822C31.7342 66.6172 32.2795 62.5698 32.9784 58.6938C33.0048 58.206 32.6886 58.0258 32.3459 58.3334C30.4172 60.8382 28.8136 63.3606 26.5862 65.3599C24.8729 66.8979 23.1595 68.4359 21.2837 69.9651C22.3381 68.5545 23.3925 67.1439 24.1395 65.3905C25.4269 62.6879 27.1931 60.1743 28.1642 57.2915C28.1731 57.1289 28.0369 56.6323 27.8568 56.9487C25.9633 58.8031 24.0522 60.9827 22.005 62.6656C21.8337 62.8194 21.4998 62.9644 21.3285 63.1182C21.1483 63.4346 20.977 63.5884 20.7969 63.9048L20.6255 64.0586C20.4542 64.2124 20.4542 64.2124 20.2829 64.3662C17.893 66.3568 14.9235 67.0113 12.3799 68.8305C12.2085 68.9843 12.3446 69.4809 12.516 69.3271C14.6817 68.4659 16.8386 67.7674 18.8505 66.7348C17.9675 67.9916 17.0932 69.0858 16.0476 70.3338C13.6136 73.1373 10.3054 77.0351 6.7955 78.6388C6.12777 78.9288 5.46005 79.2188 4.63861 79.3374C4.63861 79.3374 4.6386 79.3374 4.47608 79.3286C9.12772 80.7221 14.4343 79.0526 18.4759 76.6622C20.3253 75.6209 22.0298 74.2455 23.5806 72.6987C24.1035 72.0747 24.7888 71.4595 25.3116 70.8355C25.6543 70.5279 26.0058 70.0577 26.3572 69.5875L26.6294 70.5808C26.4317 71.2224 26.2339 71.864 26.0362 72.5056C25.2716 74.5842 24.3445 76.6539 23.2636 78.5523C21.8401 80.7583 20.1091 82.6215 18.6944 84.6649C18.3429 85.1351 18.8041 85.6493 19.1556 85.1791C22.266 81.9229 26.2459 80.6708 29.7911 78.4167C32.4884 76.7689 34.9223 73.9653 36.3987 70.7837C35.9151 73.6929 34.7902 76.4043 34.3067 79.3135C34.2802 79.8013 34.7502 80.1529 34.9392 79.6739C36.3451 77.7932 37.1185 75.552 38.0544 73.3196C38.9815 71.2498 39.7813 68.5208 41.0247 66.6312C42.0039 69.6196 42.2889 73.3858 44.2873 75.6141C44.441 75.7855 44.9286 75.8119 44.955 75.3241C45.2232 73.3817 44.2705 69.9055 45.1888 67.9983C45.8957 69.9935 47.0727 72.3403 48.834 72.925C48.9966 72.9338 49.3304 72.7888 49.3392 72.6262C49.4449 70.675 48.7115 69.1675 48.3208 67.3525C49.0894 68.2095 49.858 69.0666 50.6355 69.761C50.9517 69.9412 51.1319 69.6248 50.9869 69.2908C50.8773 68.3064 50.605 67.3132 50.1703 66.3112C49.4545 64.4785 49.7532 64.9839 50.838 66.0212C52.2303 67.4012 53.4777 68.4472 55.2567 68.7067C55.4192 68.7155 55.5905 68.5617 55.4368 68.3903C54.6858 67.208 53.9348 66.0258 53.3552 64.6898C56.3199 67.1335 59.8163 68.7905 63.4271 68.3338C64.0596 68.6942 64.0772 68.369 63.9235 68.1976Z" fill="url(#paint4_linear_8301_125)"/>
<path opacity="0.4" d="M30.8889 49.1222C30.5462 49.4298 30.2035 49.7373 29.8609 50.0449C29.0042 50.8139 27.9938 51.4115 27.1459 52.0179C28.1651 51.2577 29.3557 50.3437 30.3925 49.2583C30.4013 49.0957 30.3925 49.2583 30.3925 49.2583C28.6879 50.6337 27.0098 51.5213 25.3317 52.4089C23.6448 53.459 22.094 55.0058 20.552 56.39C18.8474 57.7654 16.8443 58.6353 14.8499 59.3427C13.8571 59.6151 12.8643 59.8875 11.8716 60.1599C10.8876 60.2697 9.89482 60.542 8.91966 60.4892C8.75713 60.4804 8.74832 60.643 8.91085 60.6518C9.2359 60.6694 9.55215 60.8496 9.8772 60.8672C9.8684 61.0298 9.85959 61.1924 10.0221 61.2012C10.9973 61.2541 11.9813 61.1443 12.9652 61.0345C19.8266 60.7538 26.9522 55.5951 31.0426 49.2936C31.2139 49.1398 31.0602 48.9684 30.8889 49.1222Z" fill="url(#paint5_linear_8301_125)"/>
<path opacity="0.4" d="M83.0786 78.6936C83.0874 78.531 83.0962 78.3684 82.9337 78.3596C82.2748 78.487 81.6159 78.6144 81.1195 78.7506C79.0066 78.6361 76.9114 78.1965 75.0051 77.2779C74.2101 76.9086 73.4239 76.3768 72.8002 75.8538C72.1765 75.3308 71.3903 74.799 70.6128 74.1046C73.3494 74.742 76.1212 74.7291 78.2604 74.3557C78.423 74.3645 78.4406 74.0393 78.2869 73.8679C76.9954 73.6349 75.7128 73.2393 74.4214 73.0062C76.0643 72.7691 77.3998 72.1891 78.5991 71.1125C78.9418 70.8049 79.2933 70.3347 79.6447 69.8645C79.8161 69.7107 79.4998 69.5305 79.4998 69.5305C78.0107 69.9391 76.5391 70.0225 74.9138 69.9344C74.2725 69.7366 73.4775 69.3674 72.6825 68.9982C69.6737 67.3675 66.5465 64.9151 64.8643 62.867C64.5657 62.3616 64.0957 62.01 63.7971 61.5046C66.5865 61.1664 69.8987 60.2043 71.6649 57.6907C71.6737 57.5281 71.8362 57.5369 71.845 57.3743C72.1965 56.9041 71.9155 56.0735 71.2566 56.2009C70.9227 56.3459 70.5888 56.4909 70.255 56.6359C69.9299 56.6183 69.596 56.7633 69.4335 56.7545C66.9956 56.6224 64.4304 55.8312 62.2167 54.5697C62.3792 54.5785 62.7042 54.5961 62.8756 54.4423C63.5345 54.315 64.0309 54.1788 64.6986 53.8888C64.8699 53.735 65.0325 53.7438 65.2038 53.59C65.7002 53.4538 66.0341 53.3088 66.3855 52.8386C66.5569 52.6848 66.4031 52.5134 66.2406 52.5046C66.2406 52.5046 66.2406 52.5046 66.412 52.3508C66.5833 52.197 66.4296 52.0256 66.267 52.0168C65.1205 52.1178 64.1454 52.065 63.179 51.8495C62.0677 51.3001 61.1366 50.4343 60.2055 49.5685C60.368 49.5773 60.368 49.5773 60.5305 49.5861C62.9596 49.8807 65.2438 49.8414 67.0933 48.8C67.2558 48.8088 67.2558 48.8088 67.4183 48.8176C67.5809 48.8264 67.7522 48.6726 67.7522 48.6726C67.761 48.51 67.7698 48.3474 67.7698 48.3474C67.9412 48.1936 68.1125 48.0398 68.275 48.0486C68.4463 47.8948 68.3014 47.5608 68.1389 47.552C67.6513 47.5256 67.0012 47.4904 66.5136 47.464C64.7523 46.8793 63.1798 45.8157 61.7699 44.7609C60.5137 43.8775 59.2576 42.994 58.1639 42.1194C56.1303 40.5416 54.7644 38.6737 53.5699 36.6521C56.3064 37.2896 59.4209 36.969 61.569 36.433C61.9028 36.288 62.2367 36.1431 62.5617 36.1607C62.7243 36.1695 62.7331 36.0069 62.5794 35.8355C62.5794 35.8355 62.5793 35.8355 62.4168 35.8267C59.9965 35.3694 57.6819 32.961 55.8108 31.3919C55.1872 30.8689 54.726 30.3547 54.2648 29.8405C57.7171 32.3106 61.8636 34.0028 64.2799 31.5245C64.4512 31.3707 64.46 31.2081 64.2975 31.1993C63.9724 31.1817 63.6562 31.0014 63.4937 30.9926C63.4937 30.9926 63.4937 30.9926 63.3311 30.9838C63.0061 30.9662 62.681 30.9486 62.356 30.931C60.2607 30.4914 58.1919 29.564 56.2856 28.6453C52.3281 26.474 49.9302 22.5934 47.1985 18.8577C47.0448 18.6863 46.7109 18.8313 46.8558 19.1653C47.7077 21.4945 48.9022 23.5162 50.2681 25.384C51.0015 26.8914 51.7349 28.3988 52.6484 29.5898C52.4946 29.4184 52.1784 29.2382 52.0247 29.0668C50.7773 28.0208 49.5475 26.6496 48.12 25.92C47.8038 25.7397 47.6148 26.2188 47.7685 26.3902C48.2209 27.067 48.8358 27.7526 49.2969 28.2668C51.4402 30.829 53.7548 33.2375 56.4473 34.6879C55.7972 34.6527 55.1471 34.6175 54.5058 34.4197C50.8029 33.5668 47.6316 31.9274 45.0448 28.5257C44.8911 28.3543 44.5484 28.6619 44.7021 28.8333C45.4619 29.8529 46.0504 31.0263 46.819 31.8834C49.7877 37.2626 53.6131 41.8729 57.8516 44.8748C54.3729 42.8925 51.2369 40.6027 48.3074 37.5086C47.9999 37.1658 47.811 37.6448 47.9559 37.9788C48.8606 39.3324 49.7741 40.5234 50.6876 41.7145C53.4018 45.7753 56.766 49.8714 60.7235 52.0427C57.9869 51.4052 54.3633 49.089 52.3649 46.8607C52.2112 46.6893 51.8686 46.9969 52.0223 47.1683C52.6283 48.0165 53.2344 48.8648 54.0118 49.5592C54.7716 50.5788 55.3689 51.5896 56.4626 52.4642C57.7011 53.6729 59.2824 54.5739 60.7099 55.3035C55.5619 54.0462 50.3922 50.1785 46.7293 45.577C46.4219 45.2342 46.0704 45.7044 46.2153 46.0384C46.6501 47.0404 47.2473 48.0512 48.0159 48.9083C48.7581 50.2531 49.3466 51.4265 49.9262 52.7625C49.9262 52.7625 49.7549 52.9163 49.9174 52.9251C50.361 53.7645 50.8133 54.4413 51.2569 55.2807C50.0271 53.9095 48.7973 52.5383 47.5676 51.1671C47.2778 50.499 46.9791 49.9936 46.8518 49.3344C46.8606 49.1718 46.5356 49.1542 46.5268 49.3168C46.8734 51.9449 47.8614 54.7707 49.381 56.8099C49.6885 57.1527 50.0399 56.6825 49.895 56.3485C49.6228 55.3553 49.1793 54.5159 48.8982 53.6853C50.1104 55.3817 51.3225 57.0782 52.8685 58.6296C53.4834 59.3152 54.2696 59.847 55.2184 60.3876C56.2944 61.5875 57.3705 62.7873 58.609 63.9959C60.6162 66.0616 63.155 67.3406 65.7026 68.4571C68.0877 69.5647 70.6441 70.5186 73.2357 70.822C68.966 71.4061 64.235 71.476 60.629 68.8346C60.4753 68.6632 60.1326 68.9708 60.2775 69.3048C60.8836 70.153 61.5073 70.676 62.131 71.199C64.9068 74.1217 68.5304 76.4379 72.0444 77.7698C73.0019 78.1478 74.122 78.5347 75.2421 78.9215C69.2462 78.2706 62.7275 78.2437 58.296 72.7852C58.1423 72.6137 57.9621 72.9301 57.9533 73.0927C58.4057 73.7696 58.8492 74.609 59.3016 75.2858C59.3016 75.2858 59.3016 75.2858 59.2928 75.4484C61.5105 79.6454 64.1414 82.2341 67.4752 83.8824C66.6626 83.8383 66.0124 83.8031 65.1998 83.7591C62.9244 83.6359 60.6755 83.0248 58.6155 81.9348C56.8717 81.025 55.8485 78.8495 54.7989 77.1619C54.8077 76.9993 54.6363 77.1531 54.6275 77.3157C54.6011 77.8035 54.746 78.1375 54.7284 78.4627C54.7284 78.4627 54.7284 78.4627 54.7196 78.6253C55.4089 80.9457 55.7468 83.7364 56.5811 86.3908C56.1199 85.8766 55.6587 85.3624 55.3689 84.6944C53.0895 81.6355 51.9919 77.8253 50.5691 73.9974C50.5691 73.9974 50.4154 73.826 50.4066 73.9886L50.3978 74.1512L50.2353 74.1424C50.2265 74.305 50.2265 74.305 50.2177 74.4676C50.1912 74.9554 50.1736 75.2806 50.1472 75.7684C49.8878 77.5482 49.1496 79.139 48.4114 80.7298C47.6645 82.4832 46.9087 84.3992 45.9992 86.1438C45.0808 88.051 43.8463 89.778 42.4492 91.4962C42.8711 89.7252 43.293 87.9542 43.4075 85.8403C43.4652 81.7665 43.747 76.5633 41.9904 72.8805C41.8367 72.7091 41.6654 72.8629 41.8191 73.0343C41.8103 73.1969 41.7927 73.5221 41.9464 73.6935C41.7839 73.6847 41.7839 73.6847 41.7751 73.8473C41.968 76.3039 40.3467 79.1515 39.2571 81.2125C38.1498 83.5986 36.2475 85.6156 34.3805 86.9822C32.3421 88.5026 29.9962 89.6801 27.668 90.5325C30.9145 87.7729 33.2564 83.6598 34.3332 78.8258C34.342 78.6632 34.1883 78.4918 34.017 78.6455C33.6567 79.2783 33.2876 80.0737 32.9273 80.7065C32.7736 80.5351 32.6199 80.3637 32.286 80.5087C27.8666 83.8571 23.6272 86.889 18.4832 88.5673C15.6674 89.3933 12.7331 89.3974 9.83402 88.7512C9.19272 88.5534 8.70513 88.5269 8.06383 88.3291C7.72997 88.4741 7.40492 88.4565 7.07105 88.6015L6.90853 88.5927C6.58347 88.5751 6.26722 88.3949 5.94217 88.3773C5.62592 88.1971 5.42817 88.8387 5.74442 89.0189C6.06066 89.1991 6.37691 89.3793 6.68435 89.7221C13.2991 93.9942 22.0276 92.347 28.4942 87.3157L28.3229 87.4695C27.6288 88.2473 26.9434 88.8625 26.0956 89.4689C25.933 89.4601 25.9242 89.6227 25.9242 89.6227C25.9242 89.6227 25.9242 89.6227 25.7529 89.7764C25.2477 90.0752 24.905 90.3828 24.3998 90.6816C23.5696 90.9628 22.9019 91.2528 22.0628 91.6966C21.9003 91.6878 21.8915 91.8504 21.7201 92.0042C21.5312 92.4832 21.6673 92.9798 22.1637 92.8436C25.9458 92.2331 29.7192 91.7851 33.238 90.0188C33.9057 89.7288 34.4109 89.43 35.0874 88.9774C36.6118 87.9184 37.9825 86.6881 39.362 85.2951C38.4613 86.8771 37.5605 88.4591 36.4973 90.0322C36.4885 90.1948 36.4797 90.3574 36.651 90.2036C38.5798 87.6989 40.8423 85.0491 42.1473 82.0213C42.0857 83.1595 42.0241 84.2977 42.1249 85.4447C42.0721 86.4203 42.0104 87.5585 41.9488 88.6967C41.8695 90.1601 41.6277 91.6147 41.2322 92.8979C40.8543 93.8559 40.4852 94.6513 39.9448 95.6005C39.936 95.7631 39.9272 95.9257 40.0985 95.7719C41.4428 95.0294 42.3083 94.0978 43.2002 92.6784C44.4347 90.9514 45.8142 89.5584 47.04 87.994C47.5628 87.37 47.9231 86.7372 48.4459 86.1132C48.7974 85.643 48.9863 85.164 49.3466 84.5312C49.1136 85.8232 48.7181 87.1064 48.1601 88.3808C48.1512 88.5434 48.305 88.7148 48.3138 88.5522C49.3946 86.6539 49.9879 84.729 50.4362 82.4703C52.8253 86.5135 55.7724 89.2824 59.0182 92.5567C59.1719 92.728 59.352 92.4117 59.1895 92.4029C59.0446 92.0688 58.7371 91.726 58.5834 91.5546C58.7371 91.726 59.0446 92.0689 59.1983 92.2403C59.5057 92.5831 59.6595 92.7545 59.9669 93.0973L60.1294 93.1061C60.1294 93.1061 60.3008 92.9523 60.147 92.7809C59.1327 90.4428 58.2808 88.1136 57.5915 85.7932C57.6003 85.6306 57.4553 85.2966 57.3016 85.1252C64.3207 87.9515 73.4703 90.5671 79.3045 85.1754C79.6471 84.8678 79.5198 84.2086 79.0234 84.3448C78.5271 84.481 77.8681 84.6083 77.218 84.5731C77.0643 84.4017 77.0643 84.4017 76.9018 84.3929C76.0891 84.3489 75.114 84.2961 74.3013 84.2521C73.4975 84.0455 72.8562 83.8477 72.0612 83.4784C75.7993 83.6809 79.419 83.0616 82.1691 80.4382C82.3404 80.2844 82.5118 80.1306 82.6831 79.9768C83.017 79.8318 83.1971 79.5154 83.531 79.3704C83.061 79.0188 83.0698 78.8562 83.0786 78.6936C83.0786 78.6936 82.9161 78.6848 83.0786 78.6936Z" fill="url(#paint6_linear_8301_125)"/>
<path opacity="0.5" d="M28.9873 45.1054C28.3108 45.5579 27.788 46.1819 27.1114 46.6345C24.748 48.1373 22.4285 48.8271 19.7841 49.4992C15.9843 50.4349 12.4175 50.0787 8.65295 50.364C8.49043 50.3552 8.48162 50.5178 8.64415 50.5266C9.58408 51.2298 10.7042 51.6167 11.833 51.8409C17.6704 55.4186 26.7503 53.3011 28.9873 45.1054C29.1498 45.1142 28.9873 45.1054 28.9873 45.1054Z" fill="url(#paint7_linear_8301_125)"/>
<path d="M44 115C62.2254 115 77 112.985 77 110.5C77 108.015 62.2254 106 44 106C25.7746 106 11 108.015 11 110.5C11 112.985 25.7746 115 44 115Z" fill="white" fill-opacity="0.03"/>
<defs>
<linearGradient id="paint0_linear_8301_125" x1="38.2855" y1="91.3586" x2="46.6882" y2="91.1954" gradientUnits="userSpaceOnUse">
<stop offset="0.1327" stop-color="#6E5D00"/>
<stop offset="0.4712" stop-color="#4B3200"/>
<stop offset="0.6194" stop-color="#383007"/>
<stop offset="0.9337" stop-color="#003138"/>
</linearGradient>
<linearGradient id="paint1_linear_8301_125" x1="42.9002" y1="95.5295" x2="41.0849" y2="2.39493" gradientUnits="userSpaceOnUse">
<stop offset="0.0138911" stop-color="#057046"/>
<stop offset="1" stop-color="#169300"/>
</linearGradient>
<linearGradient id="paint2_linear_8301_125" x1="23.5946" y1="48.4441" x2="41.0957" y2="40.1422" gradientUnits="userSpaceOnUse">
<stop stop-color="#FFE23A"/>
<stop offset="0.9861" stop-color="#004227"/>
</linearGradient>
<linearGradient id="paint3_linear_8301_125" x1="25.3482" y1="28.5216" x2="42.8235" y2="15.7291" gradientUnits="userSpaceOnUse">
<stop stop-color="#FFE23A"/>
<stop offset="0.9861" stop-color="#004227"/>
</linearGradient>
<linearGradient id="paint4_linear_8301_125" x1="16.0493" y1="85.5568" x2="43.857" y2="64.4267" gradientUnits="userSpaceOnUse">
<stop stop-color="#FFE23A"/>
<stop offset="0.9861" stop-color="#004227"/>
</linearGradient>
<linearGradient id="paint5_linear_8301_125" x1="8.75314" y1="55.4211" x2="31.2532" y2="54.984" gradientUnits="userSpaceOnUse">
<stop stop-color="#FFE23A"/>
<stop offset="0.9861" stop-color="#004227"/>
</linearGradient>
<linearGradient id="paint6_linear_8301_125" x1="23.5633" y1="53.0062" x2="91.1064" y2="83.7639" gradientUnits="userSpaceOnUse">
<stop stop-color="#004B14"/>
<stop offset="0.7095" stop-color="#0C498D"/>
<stop offset="1" stop-color="#005667"/>
</linearGradient>
<linearGradient id="paint7_linear_8301_125" x1="21.0085" y1="44.6732" x2="14.0133" y2="56.2923" gradientUnits="userSpaceOnUse">
<stop stop-color="#004B14"/>
<stop offset="0.7095" stop-color="#0C498D"/>
<stop offset="1" stop-color="#005667"/>
</linearGradient>
</defs>
</svg>
