<svg width="110" height="115" viewBox="0 0 110 115" fill="none" xmlns="http://www.w3.org/2000/svg">
<path d="M47.9337 77.7803C47.9337 77.7803 48.0234 97.1914 47.3284 104.003C47.3284 104.003 49.8976 107.73 55.7622 104.786C55.7622 104.786 54.2667 87.2557 54.7422 78.4753C54.7334 78.6379 52.1906 74.4232 47.9337 77.7803Z" fill="url(#paint0_linear_8301_236)"/>
<path d="M91.8955 78.6936C91.9043 78.531 91.9131 78.3684 91.7506 78.3596C91.0917 78.487 90.4327 78.6144 89.9363 78.7506C87.0109 78.5922 84.1206 77.7833 81.617 75.8538C80.9933 75.3308 80.2071 74.799 79.4297 74.1046C82.1663 74.7421 84.938 74.7291 87.0773 74.3557C87.2398 74.3645 87.2574 74.0393 87.1037 73.8679C85.8123 73.6349 84.5297 73.2393 83.2383 73.0063C85.3688 72.7955 87.2094 71.9167 88.2991 69.8557C88.4704 69.7019 88.1541 69.5217 88.1541 69.5217C86.665 69.9303 85.1934 70.0137 83.5682 69.9256C79.8917 68.585 75.6708 65.2579 73.5275 62.6956C73.2288 62.1902 72.7589 61.8386 72.4603 61.3332C75.4122 61.0039 78.8957 59.8879 80.5082 57.2029C80.8596 56.7327 80.5786 55.9021 79.9197 56.0295C79.5858 56.1745 79.252 56.3195 78.9181 56.4645C78.5931 56.4469 78.2592 56.5919 78.0967 56.5831C75.6588 56.451 73.0935 55.6598 70.8798 54.3984C71.8638 54.2886 72.8566 54.0162 73.7044 53.4098C74.2008 53.2736 74.5347 53.1286 74.8862 52.6584C75.0575 52.5046 74.9038 52.3332 74.7412 52.3244C74.7412 52.3244 74.7412 52.3244 74.9126 52.1706C75.0839 52.0168 74.9302 51.8454 74.7677 51.8366C73.6212 51.9376 72.646 51.8848 71.6796 51.6694C70.5684 51.1199 69.6372 50.2541 68.7061 49.3883C71.1352 49.6829 73.7445 49.6612 75.5939 48.6198C75.7564 48.6286 75.7564 48.6286 75.919 48.6374C76.244 48.655 76.4241 48.3386 76.2792 48.0046C76.4506 47.8508 76.6219 47.697 76.7844 47.7058C76.9558 47.552 76.8109 47.218 76.6483 47.2092C76.1607 47.1828 75.5106 47.1476 75.0231 47.1212C71.9879 45.9783 69.1681 43.8687 66.5108 41.7678C64.4772 40.19 63.1113 38.3221 61.9168 36.3005C65.1409 36.9644 68.5804 36.6614 70.9174 35.6465C71.08 35.6553 71.0888 35.4927 70.9351 35.3213C70.9351 35.3213 70.9351 35.3213 70.7725 35.3125C68.3522 34.8552 66.0376 32.4468 64.1665 30.8777C63.5428 30.3547 63.0817 29.8405 62.6205 29.3263C66.0728 31.7964 70.2193 33.4886 72.6356 31.0103C72.8069 30.8565 72.8157 30.6939 72.6532 30.6851C60.398 28.2275 54.0874 15.3287 50.0611 2.39055C49.9338 1.73135 49.1211 1.68733 48.9146 2.49153C48.897 2.81673 48.8794 3.14193 48.8617 3.46713C48.5455 3.28692 48.0403 3.58572 47.8514 4.06472C46.5327 10.3533 45.1388 21.041 38.5232 22.8026C38.3607 22.7938 38.5056 23.1278 38.5056 23.1278C39.4984 22.8555 40.6625 22.4293 41.6905 21.5065C39.0589 24.9517 35.2543 28.9856 31.3272 29.2621C31.0022 29.2445 30.9669 29.8949 31.292 29.9125C34.0638 29.8996 36.7082 29.2274 39.0629 27.8873C37.1254 30.5547 34.8804 32.8792 32.2007 34.2018C31.6955 34.5006 31.9853 35.1686 32.4817 35.0324C35.3063 34.0438 37.9948 32.5587 40.2398 30.2341C40.0508 30.7131 39.8707 31.0295 39.5192 31.4997C39.3391 31.8161 38.9964 32.1237 38.8075 32.6027C36.3295 36.2193 32.7843 38.4734 28.8485 38.9125C28.3609 38.8861 28.4794 39.7079 28.8044 39.7255C30.2584 39.9674 31.5674 39.8752 32.894 39.4578C30.6755 41.2946 27.9958 42.6171 25.413 42.1511C25.0879 42.1335 25.0615 42.6213 25.3777 42.8015C29.0542 44.1422 32.2127 43.0086 35.424 40.8995C31.5666 45.909 26.6419 49.5561 20.4571 49.3842C20.132 49.3666 20.1144 49.6918 20.0968 50.017C19.6092 49.9906 19.4115 50.6322 19.8814 50.9838C23.5051 53.3001 27.3969 53.674 31.3416 53.0722C30.999 53.3798 30.6475 53.85 30.1423 54.1488C26.5531 57.216 22.6828 59.4525 18.2506 60.0279C18.088 60.0191 17.9167 60.1728 17.8991 60.498C17.4115 60.4716 17.0865 60.454 16.5901 60.5902C15.94 60.555 15.8783 61.6932 16.5196 61.891C21.0087 63.2757 25.7396 63.2058 30.3697 61.9889C30.0182 62.4591 29.6579 63.0919 29.3064 63.5621L29.1351 63.7159C26.5739 65.8602 23.6044 66.5148 20.8894 68.4877C20.7181 68.6415 20.8542 69.1381 21.0255 68.9843C23.1912 68.1232 25.3481 67.4246 27.3601 66.392C26.477 67.6488 25.6027 68.743 24.5571 69.991C21.6004 73.4186 17.2554 78.4017 13.1482 78.9946C12.8231 78.977 12.643 79.2934 12.6254 79.6186C11.9841 79.4208 11.5141 79.0692 10.8816 78.7088C10.5653 78.5286 10.2139 78.9988 10.3588 79.3328C12.4492 82.8707 18.0104 82.5196 21.2873 82.2078C22.9214 82.1332 25.0695 81.5973 27.0727 80.7273C25.5307 82.1115 23.69 82.9903 22.0119 83.8778C21.678 84.0228 21.8054 84.682 22.1392 84.537C22.8069 84.247 23.4747 83.957 24.1424 83.6671C21.2385 86.119 17.7374 87.5602 14.2891 88.0257L14.1265 88.0169C13.8015 87.9993 13.4852 87.8191 13.1602 87.8015C12.8439 87.6213 12.6462 88.2629 12.9624 88.4431C19.8582 93.5458 29.5618 91.9514 36.3888 86.2873C35.5057 87.5441 34.4689 88.6295 33.1334 89.2094C32.9709 89.2006 32.9533 89.5258 32.9445 89.6885C31.7804 90.1146 30.6163 90.5408 29.2808 91.1208C28.7756 91.4196 28.8853 92.404 29.3817 92.2678C33.8228 91.5299 38.255 90.9546 42.3054 88.4016C43.8298 87.3426 45.2005 86.1122 46.58 84.7193C45.6793 86.3013 44.7786 87.8832 43.7153 89.4564C43.7065 89.619 43.6977 89.7816 43.869 89.6278C45.9691 86.9693 48.2317 84.3195 49.5543 80.9665C49.5015 81.9421 49.4486 82.9177 49.3958 83.8933C49.0923 86.4861 49.2501 89.5931 48.459 92.1595C48.0811 93.1175 47.7121 93.9129 47.1716 94.8621C47.1628 95.0247 47.154 95.1873 47.3254 95.0335C48.6696 94.291 49.5351 93.3594 50.427 91.94C52.0218 89.5802 54.0778 87.7346 55.5102 85.366C55.8616 84.8958 56.0506 84.4168 56.4109 83.784C56.1779 85.076 55.7824 86.3592 55.2243 87.6336C55.2155 87.7962 55.3693 87.9676 55.3781 87.805C56.4589 85.9066 57.0522 83.9818 57.5005 81.7231C59.8896 85.7663 62.8367 88.5352 66.0825 91.8094C66.2362 91.9808 66.4163 91.6644 66.2538 91.6556C65.9463 91.3128 65.8014 90.9788 65.494 90.636C65.9552 91.1502 66.4163 91.6645 67.04 92.1875C67.1937 92.3589 67.3651 92.2051 67.2113 92.0337C66.0432 89.5242 65.209 86.8698 64.3659 84.378C71.385 87.2043 80.5346 89.8199 86.3688 84.4282C86.7114 84.1206 86.5841 83.4614 86.0877 83.5976C85.4288 83.7249 84.7699 83.8523 84.1198 83.8171C82.3232 83.8829 80.7155 83.4697 79.1255 82.7312C83.0261 82.9425 86.9796 82.1782 89.7474 79.2296C90.0813 79.0846 90.2614 78.7682 90.5953 78.6232C91.8779 79.0188 91.8867 78.8562 91.8955 78.6936C91.8955 78.6936 91.733 78.6848 91.8955 78.6936Z" fill="url(#paint1_linear_8301_236)"/>
<path opacity="0.5" d="M25.6853 43.1443C29.3618 44.485 32.5203 43.3514 35.7316 41.2423C34.1632 43.1143 32.5948 44.9862 30.7277 46.3528C29.871 47.1218 28.8694 47.5568 27.859 48.1544C28.3554 48.0182 29.0143 47.8908 29.5019 47.9172C31.1536 47.5174 32.6428 47.1089 34.1584 46.2125C35.6652 45.4787 38.7316 43.0355 39.9397 41.7964C39.1135 45.0132 35.9326 49.5701 36.2752 49.2625C39.6755 46.6744 40.7387 45.1012 42.5401 41.9372C42.6362 46.1824 42.2359 50.5638 42.657 54.8267C42.6306 55.3145 42.4241 56.1187 42.7667 55.8111C43.9837 54.4093 48.3295 43.3923 49.05 42.1267C50.0204 45.2778 52.9715 50.9822 52.9891 50.657C53.6088 48.2444 53.2621 45.6164 53.078 42.9972C55.094 44.9002 60.3429 47.3045 60.0443 46.7991C56.4999 43.0195 53.0348 37.7764 52.3767 31.8699C52.4031 31.3821 51.2646 37.3543 50.9523 40.1097C49.1517 37.2399 48.5905 29.5449 48.4015 30.0239C46.5737 33.6756 45.7034 37.7054 44.2006 41.3748C43.7091 38.4128 44.7291 31.6188 44.3952 31.7638C43.3584 32.8492 42.6466 33.9522 41.7723 35.0463C41.0694 35.9867 40.2127 36.7557 39.1935 37.5159C40.2744 35.6175 41.9925 30.9813 41.8124 31.2977C40.3801 33.6663 38.0078 35.3317 35.5082 36.3378C34.9942 36.7992 34.3265 37.0892 33.8125 37.5506C32.3057 38.2844 30.8078 38.8556 29.1649 39.0927C28.6773 39.0663 28.7958 39.8881 29.1208 39.9058C30.5748 40.1476 31.8838 40.0554 33.2104 39.638C30.9919 41.4748 28.3122 42.7973 25.7294 42.3313C25.558 42.4851 25.3603 43.1267 25.6853 43.1443Z" fill="url(#paint2_linear_8301_236)"/>
<path opacity="0.6" d="M31.5992 30.2553C31.7617 30.2641 31.7618 30.2641 31.9243 30.2729C32.0868 30.2817 32.2581 30.1279 32.2581 30.1279L32.4207 30.1367C36.3566 29.6976 39.7744 26.7843 43.1747 24.1961C42.6343 25.1453 41.7688 26.0769 41.0747 26.8547C40.732 27.1623 41.0218 27.8303 41.5094 27.8567C43.9825 27.3383 46.3724 25.3478 48.121 23.1594C47.8968 24.2888 47.6726 25.4182 47.611 26.5564C47.5846 27.0442 48.2259 27.242 48.406 26.9256C49.4692 25.3524 50.0625 23.4276 50.8095 21.6742C51.5252 23.5069 52.0697 25.4933 53.2818 27.1897C53.5893 27.5325 53.9231 27.3875 53.9495 26.8997C54.0288 25.4363 53.783 23.9553 53.6997 22.4831C55.1185 23.3753 56.5195 24.5927 57.5868 25.9552C57.8942 26.298 58.417 25.674 58.1096 25.3312C55.8214 22.4349 54.7325 18.4621 52.9584 15.1044C52.8134 14.7704 52.3171 14.9066 52.2994 15.2318C52.2466 16.2074 52.0312 17.1742 51.8247 17.9784C51.0913 16.471 50.8455 14.99 50.7799 13.1926C50.7975 12.8674 50.3275 12.5158 50.1474 12.8322C49.2643 14.089 48.7062 15.3634 47.8231 16.6202C48.1442 13.7021 48.7815 10.9644 49.0937 8.20894C49.1994 6.25774 49.3139 4.14393 49.2571 2.18393C49.0857 2.33772 49.0857 2.33772 49.0769 2.50032C49.0593 2.82552 49.0417 3.15072 49.0241 3.47592C48.8615 3.46712 48.699 3.45831 48.5365 3.44951C48.3652 3.60331 48.1938 3.75711 48.0137 4.07351C46.6951 10.3621 45.3012 21.0497 38.6856 22.8114C38.523 22.8026 38.668 23.1366 38.668 23.1366C39.6607 22.8642 40.8249 22.4381 41.8529 21.5153C40.447 23.3961 38.7072 25.4218 36.8313 26.951C35.1268 28.3264 33.4487 29.214 31.6521 29.2797C31.4895 29.2709 31.4895 29.2709 31.4807 29.4335C31.283 30.0751 31.2742 30.2377 31.5992 30.2553Z" fill="url(#paint3_linear_8301_236)"/>
<path opacity="0.4" d="M72.7404 68.1976C71.1327 67.7844 69.6876 67.3799 68.2424 66.9755C66.6964 65.4241 64.9615 64.3517 63.4155 62.8002C61.8694 61.2488 60.855 58.9108 59.309 57.3593C59.0016 57.0165 58.4964 57.3153 58.6325 57.8119C58.7422 58.7963 58.7422 58.7963 58.8519 59.7807C58.9704 60.6025 59.6333 63.4107 58.1225 61.2089C57.5252 60.1981 57.0993 59.0335 56.3307 58.1765C56.177 58.0051 55.8519 57.9875 55.8343 58.3127C55.1049 59.7409 55.5044 61.3933 55.7502 62.8743C54.8631 61.1955 54.3275 59.0464 53.2779 57.3588C53.133 57.0248 52.7991 57.1698 52.6278 57.3236C51.7007 59.3934 51.9024 61.6874 51.9417 63.9726C51.2435 61.8148 50.8704 59.6746 50.326 57.6882C50.1811 57.3542 49.856 57.3366 49.6759 57.653C48.551 60.3643 48.0586 63.4361 47.25 66.3277C47.0923 63.2207 47.2596 60.1313 47.4269 57.0419C47.4445 56.7167 46.9658 56.5277 46.7856 56.8441C44.1099 61.1023 42.0667 65.7208 40.331 70.6822C40.5511 66.6172 41.0964 62.5698 41.7953 58.6938C41.8217 58.206 41.5055 58.0258 41.1628 58.3334C39.2341 60.8382 37.6304 63.3606 35.4031 65.3599C33.6898 66.8979 31.9764 68.4359 30.1005 69.9651C31.155 68.5545 32.2094 67.1439 32.9564 65.3905C34.2438 62.6879 36.01 60.1743 36.9811 57.2915C36.9899 57.1289 36.8538 56.6323 36.6737 56.9487C34.7802 58.8031 32.8691 60.9827 30.8219 62.6656C30.6506 62.8194 30.3167 62.9644 30.1454 63.1182C29.9652 63.4346 29.7939 63.5884 29.6138 63.9048L29.4424 64.0586C29.2711 64.2124 29.2711 64.2124 29.0998 64.3662C26.7099 66.3568 23.7404 67.0113 21.1968 68.8305C21.0254 68.9843 21.1615 69.4809 21.3329 69.3271C23.4986 68.4659 25.6555 67.7674 27.6674 66.7348C26.7843 67.9916 25.9101 69.0858 24.8644 70.3338C22.4305 73.1373 19.1223 77.0351 15.6124 78.6388C14.9447 78.9288 14.2769 79.2188 13.4555 79.3374C13.4555 79.3374 13.4555 79.3374 13.293 79.3286C17.9446 80.7221 23.2512 79.0526 27.2927 76.6622C29.1422 75.6209 30.8467 74.2455 32.3975 72.6987C32.9203 72.0747 33.6057 71.4595 34.1285 70.8355C34.4712 70.5279 34.8226 70.0577 35.1741 69.5875L35.4463 70.5808C35.2486 71.2224 35.0508 71.864 34.8531 72.5056C34.0885 74.5842 33.1613 76.6539 32.0805 78.5523C30.657 80.7583 28.926 82.6215 27.5113 84.6649C27.1598 85.1351 27.621 85.6493 27.9725 85.1791C31.0829 81.9229 35.0628 80.6708 38.608 78.4167C41.3053 76.7689 43.7392 73.9653 45.2156 70.7837C44.732 73.6929 43.6071 76.4043 43.1235 79.3135C43.0971 79.8013 43.5671 80.1529 43.756 79.6739C45.1619 77.7932 45.9353 75.552 46.8713 73.3196C47.7984 71.2498 48.5982 68.5208 49.8416 66.6312C50.8208 69.6196 51.1058 73.3858 53.1042 75.6141C53.2579 75.7855 53.7455 75.8119 53.7719 75.3241C54.0401 73.3817 53.0874 69.9055 54.0057 67.9983C54.7126 69.9935 55.8895 72.3403 57.6509 72.925C57.8135 72.9338 58.1473 72.7888 58.1561 72.6262C58.2618 70.675 57.5284 69.1675 57.1377 67.3525C57.9063 68.2095 58.6749 69.0666 59.4523 69.761C59.7686 69.9412 59.9487 69.6248 59.8038 69.2908C59.6941 68.3064 59.4219 67.3132 58.9872 66.3112C58.2714 64.4785 58.5701 64.9839 59.6549 66.0212C61.0472 67.4012 62.2946 68.4472 64.0736 68.7067C64.2361 68.7155 64.4074 68.5617 64.2537 68.3903C63.5027 67.208 62.7517 66.0258 62.1721 64.6898C65.1368 67.1335 68.6331 68.7905 72.244 68.3338C72.8765 68.6942 72.8941 68.369 72.7404 68.1976Z" fill="url(#paint4_linear_8301_236)"/>
<path opacity="0.4" d="M39.7057 49.1222C39.3631 49.4298 39.0204 49.7373 38.6777 50.0449C37.8211 50.8139 36.8107 51.4115 35.9628 52.0179C36.982 51.2577 38.1725 50.3437 39.2094 49.2583C39.2182 49.0957 39.2094 49.2583 39.2094 49.2583C37.5048 50.6337 35.8267 51.5213 34.1486 52.4089C32.4617 53.459 30.9109 55.0058 29.3689 56.39C27.6643 57.7654 25.6611 58.6353 23.6668 59.3427C22.674 59.6151 21.6812 59.8875 20.6884 60.1599C19.7045 60.2697 18.7117 60.542 17.7365 60.4892C17.574 60.4804 17.5652 60.643 17.7277 60.6518C18.0528 60.6694 18.369 60.8496 18.6941 60.8672C18.6853 61.0298 18.6765 61.1924 18.839 61.2012C19.8142 61.2541 20.7981 61.1443 21.7821 61.0345C28.6435 60.7538 35.7691 55.5951 39.8595 49.2936C40.0308 49.1398 39.8771 48.9684 39.7057 49.1222Z" fill="url(#paint5_linear_8301_236)"/>
<path opacity="0.4" d="M91.8955 78.6936C91.9043 78.531 91.9131 78.3684 91.7506 78.3596C91.0917 78.487 90.4328 78.6144 89.9364 78.7506C87.8235 78.6361 85.7283 78.1965 83.822 77.2779C83.027 76.9086 82.2407 76.3768 81.6171 75.8538C80.9934 75.3308 80.2071 74.799 79.4297 74.1046C82.1663 74.742 84.938 74.7291 87.0773 74.3557C87.2398 74.3645 87.2575 74.0393 87.1037 73.8679C85.8123 73.6349 84.5297 73.2393 83.2383 73.0062C84.8812 72.7691 86.2167 72.1891 87.416 71.1125C87.7587 70.8049 88.1101 70.3347 88.4616 69.8645C88.6329 69.7107 88.3167 69.5305 88.3167 69.5305C86.8275 69.9391 85.356 70.0225 83.7307 69.9344C83.0894 69.7366 82.2944 69.3674 81.4994 68.9982C78.4906 67.3675 75.3633 64.9151 73.6812 62.867C73.3826 62.3616 72.9126 62.01 72.614 61.5046C75.4034 61.1664 78.7156 60.2043 80.4818 57.6907C80.4906 57.5281 80.6531 57.5369 80.6619 57.3743C81.0134 56.9041 80.7324 56.0735 80.0734 56.2009C79.7396 56.3459 79.4057 56.4909 79.0718 56.6359C78.7468 56.6183 78.4129 56.7633 78.2504 56.7545C75.8125 56.6224 73.2473 55.8312 71.0335 54.5697C71.1961 54.5785 71.5211 54.5961 71.6925 54.4423C72.3514 54.315 72.8478 54.1788 73.5155 53.8888C73.6868 53.735 73.8494 53.7438 74.0207 53.59C74.5171 53.4538 74.8509 53.3088 75.2024 52.8386C75.3738 52.6848 75.22 52.5134 75.0575 52.5046C75.0575 52.5046 75.0575 52.5046 75.2288 52.3508C75.4002 52.197 75.2465 52.0256 75.0839 52.0168C73.9374 52.1178 72.9623 52.065 71.9959 51.8495C70.8846 51.3001 69.9535 50.4343 69.0224 49.5685C69.1849 49.5773 69.1849 49.5773 69.3474 49.5861C71.7765 49.8807 74.0607 49.8414 75.9102 48.8C76.0727 48.8088 76.0727 48.8088 76.2352 48.8176C76.3978 48.8264 76.5691 48.6726 76.5691 48.6726C76.5779 48.51 76.5867 48.3474 76.5867 48.3474C76.758 48.1936 76.9294 48.0398 77.0919 48.0486C77.2632 47.8948 77.1183 47.5608 76.9558 47.552C76.4682 47.5256 75.8181 47.4904 75.3305 47.464C73.5691 46.8793 71.9967 45.8157 70.5868 44.7609C69.3306 43.8775 68.0744 42.994 66.9808 42.1194C64.9472 40.5416 63.5813 38.6737 62.3868 36.6521C65.1233 37.2896 68.2378 36.969 70.3858 36.433C70.7197 36.288 71.0536 36.1431 71.3786 36.1607C71.5412 36.1695 71.55 36.0069 71.3962 35.8355C71.3962 35.8355 71.3962 35.8355 71.2337 35.8267C68.8134 35.3694 66.4988 32.961 64.6277 31.3919C64.004 30.8689 63.5429 30.3547 63.0817 29.8405C66.534 32.3106 70.6805 34.0028 73.0968 31.5245C73.2681 31.3707 73.2769 31.2081 73.1144 31.1993C72.7893 31.1817 72.4731 31.0014 72.3105 30.9926C72.3105 30.9926 72.3105 30.9926 72.148 30.9838C71.823 30.9662 71.4979 30.9486 71.1729 30.931C69.0776 30.4914 67.0088 29.564 65.1025 28.6453C61.145 26.474 58.7471 22.5934 56.0154 18.8577C55.8617 18.6863 55.5278 18.8313 55.6727 19.1653C56.5246 21.4945 57.7191 23.5162 59.085 25.384C59.8184 26.8914 60.5517 28.3988 61.4653 29.5898C61.3115 29.4184 60.9953 29.2382 60.8416 29.0668C59.5942 28.0208 58.3644 26.6496 56.9369 25.92C56.6207 25.7397 56.4317 26.2188 56.5854 26.3902C57.0378 27.067 57.6527 27.7526 58.1138 28.2668C60.2571 30.829 62.5717 33.2375 65.2642 34.6879C64.6141 34.6527 63.964 34.6175 63.3227 34.4197C59.6198 33.5668 56.4485 31.9274 53.8617 28.5257C53.708 28.3543 53.3653 28.6619 53.519 28.8333C54.2788 29.8529 54.8673 31.0263 55.6359 31.8834C58.6046 37.2626 62.43 41.8729 66.6685 44.8748C63.1898 42.8925 60.0537 40.6027 57.1243 37.5086C56.8168 37.1658 56.6279 37.6448 56.7728 37.9788C57.6775 39.3324 58.591 40.5234 59.5045 41.7145C62.2186 45.7753 65.5829 49.8714 69.5404 52.0427C66.8038 51.4052 63.1802 49.089 61.1818 46.8607C61.0281 46.6893 60.6854 46.9969 60.8392 47.1683C61.4452 48.0165 62.0513 48.8648 62.8287 49.5592C63.5885 50.5788 64.1858 51.5896 65.2794 52.4642C66.518 53.6729 68.0993 54.5739 69.5268 55.3035C64.3787 54.0462 59.2091 50.1785 55.5462 45.577C55.2388 45.2342 54.8873 45.7044 55.0322 46.0384C55.467 47.0404 56.0642 48.0512 56.8328 48.9083C57.575 50.2531 58.1635 51.4265 58.7431 52.7625C58.7431 52.7625 58.5718 52.9163 58.7343 52.9251C59.1779 53.7645 59.6302 54.4413 60.0738 55.2807C58.844 53.9095 57.6142 52.5383 56.3845 51.1671C56.0946 50.499 55.796 49.9936 55.6687 49.3344C55.6775 49.1718 55.3525 49.1542 55.3437 49.3168C55.6903 51.9449 56.6783 54.7707 58.1979 56.8099C58.5053 57.1527 58.8568 56.6825 58.7119 56.3485C58.4397 55.3553 57.9961 54.5159 57.7151 53.6853C58.9273 55.3817 60.1394 57.0782 61.6854 58.6296C62.3003 59.3152 63.0865 59.847 64.0353 60.3876C65.1113 61.5875 66.1874 62.7873 67.4259 63.9959C69.4331 66.0616 71.9719 67.3406 74.5195 68.4571C76.9046 69.5647 79.461 70.5186 82.0526 70.822C77.7828 71.4061 73.0519 71.476 69.4459 68.8346C69.2922 68.6632 68.9495 68.9708 69.0944 69.3048C69.7005 70.153 70.3242 70.676 70.9479 71.199C73.7237 74.1217 77.3473 76.4379 80.8613 77.7698C81.8188 78.1478 82.9389 78.5347 84.059 78.9215C78.0631 78.2706 71.5444 78.2437 67.1129 72.7852C66.9592 72.6137 66.779 72.9301 66.7702 73.0927C67.2226 73.7696 67.6661 74.609 68.1185 75.2858C68.1185 75.2858 68.1185 75.2858 68.1097 75.4484C70.3274 79.6454 72.9583 82.2341 76.2921 83.8824C75.4794 83.8383 74.8293 83.8031 74.0167 83.7591C71.7413 83.6359 69.4924 83.0248 67.4323 81.9348C65.6886 81.025 64.6654 78.8495 63.6157 77.1619C63.6246 76.9993 63.4532 77.1531 63.4444 77.3157C63.418 77.8035 63.5629 78.1375 63.5453 78.4627C63.5453 78.4627 63.5453 78.4627 63.5365 78.6253C64.2258 80.9457 64.5637 83.7364 65.3979 86.3908C64.9368 85.8766 64.4756 85.3624 64.1858 84.6944C61.9064 81.6355 60.8087 77.8253 59.386 73.9974C59.386 73.9974 59.2323 73.826 59.2235 73.9886L59.2147 74.1512L59.0522 74.1424C59.0434 74.305 59.0434 74.305 59.0346 74.4676C59.0081 74.9554 58.9905 75.2806 58.9641 75.7684C58.7047 77.5482 57.9665 79.139 57.2283 80.7298C56.4814 82.4832 55.7256 84.3992 54.816 86.1438C53.8977 88.051 52.6632 89.778 51.2661 91.4962C51.688 89.7252 52.1099 87.9542 52.2244 85.8403C52.2821 81.7665 52.5639 76.5633 50.8073 72.8805C50.6536 72.7091 50.4823 72.8629 50.636 73.0343C50.6272 73.1969 50.6096 73.5221 50.7633 73.6935C50.6007 73.6847 50.6007 73.6847 50.5919 73.8473C50.7849 76.3039 49.1636 79.1515 48.074 81.2125C46.9667 83.5986 45.0644 85.6156 43.1973 86.9822C41.1589 88.5026 38.8131 89.6801 36.4849 90.5325C39.7314 87.7729 42.0733 83.6598 43.1501 78.8258C43.1589 78.6632 43.0052 78.4918 42.8339 78.6455C42.4736 79.2783 42.1045 80.0737 41.7442 80.7065C41.5905 80.5351 41.4368 80.3637 41.1029 80.5087C36.6834 83.8571 32.4441 86.889 27.3001 88.5673C24.4843 89.3933 21.55 89.3974 18.6509 88.7512C18.0096 88.5534 17.522 88.5269 16.8807 88.3291C16.5469 88.4741 16.2218 88.4565 15.8879 88.6015L15.7254 88.5927C15.4004 88.5751 15.0841 88.3949 14.7591 88.3773C14.4428 88.1971 14.2451 88.8387 14.5613 89.0189C14.8776 89.1991 15.1938 89.3793 15.5012 89.7221C22.116 93.9942 30.8445 92.347 37.3111 87.3157L37.1398 87.4695C36.4457 88.2473 35.7603 88.8625 34.9125 89.4689C34.7499 89.4601 34.7411 89.6227 34.7411 89.6227C34.7411 89.6227 34.7411 89.6227 34.5698 89.7764C34.0646 90.0752 33.7219 90.3828 33.2167 90.6816C32.3865 90.9628 31.7187 91.2528 30.8797 91.6966C30.7172 91.6878 30.7084 91.8504 30.537 92.0042C30.3481 92.4832 30.4842 92.9798 30.9806 92.8436C34.7627 92.2331 38.5361 91.7851 42.0548 90.0188C42.7226 89.7288 43.2278 89.43 43.9043 88.9774C45.4287 87.9184 46.7994 86.6881 48.1788 85.2951C47.2781 86.8771 46.3774 88.4591 45.3142 90.0322C45.3054 90.1948 45.2966 90.3574 45.4679 90.2036C47.3966 87.6989 49.6592 85.0491 50.9642 82.0213C50.9026 83.1595 50.8409 84.2977 50.9418 85.4447C50.889 86.4203 50.8273 87.5585 50.7657 88.6967C50.6864 90.1601 50.4446 91.6147 50.0491 92.8979C49.6712 93.8559 49.3021 94.6513 48.7617 95.6005C48.7529 95.7631 48.7441 95.9257 48.9154 95.7719C50.2597 95.0294 51.1252 94.0978 52.0171 92.6784C53.2516 90.9514 54.6311 89.5584 55.8569 87.994C56.3797 87.37 56.74 86.7372 57.2628 86.1132C57.6143 85.643 57.8032 85.164 58.1635 84.5312C57.9305 85.8232 57.535 87.1064 56.9769 88.3808C56.9681 88.5434 57.1219 88.7148 57.1307 88.5522C58.2115 86.6539 58.8048 84.729 59.2531 82.4703C61.6422 86.5135 64.5893 89.2824 67.8351 92.5567C67.9888 92.728 68.1689 92.4117 68.0064 92.4029C67.8615 92.0688 67.554 91.726 67.4003 91.5546C67.554 91.726 67.8615 92.0689 68.0152 92.2403C68.3226 92.5831 68.4763 92.7545 68.7838 93.0973L68.9463 93.1061C68.9463 93.1061 69.1177 92.9523 68.9639 92.7809C67.9495 90.4428 67.0977 88.1136 66.4083 85.7932C66.4171 85.6306 66.2722 85.2966 66.1185 85.1252C73.1376 87.9515 82.2872 90.5671 88.1213 85.1754C88.464 84.8678 88.3367 84.2086 87.8403 84.3448C87.3439 84.481 86.685 84.6083 86.0349 84.5731C85.8812 84.4017 85.8812 84.4017 85.7187 84.3929C84.906 84.3489 83.9309 84.2961 83.1182 84.2521C82.3144 84.0455 81.6731 83.8477 80.8781 83.4784C84.6162 83.6809 88.2358 83.0616 90.986 80.4382C91.1573 80.2844 91.3287 80.1306 91.5 79.9768C91.8339 79.8318 92.014 79.5154 92.3479 79.3704C91.8779 79.0188 91.8867 78.8562 91.8955 78.6936C91.8955 78.6936 91.733 78.6848 91.8955 78.6936Z" fill="url(#paint6_linear_8301_236)"/>
<path opacity="0.5" d="M37.8042 45.1054C37.1277 45.5579 36.6048 46.1819 35.9283 46.6345C33.5649 48.1373 31.2454 48.8271 28.601 49.4992C24.8012 50.4349 21.2344 50.0787 17.4698 50.364C17.3073 50.3552 17.2985 50.5178 17.461 50.5266C18.401 51.2298 19.5211 51.6167 20.6499 51.8409C26.4873 55.4186 35.5672 53.3011 37.8042 45.1054C37.9667 45.1142 37.8042 45.1054 37.8042 45.1054Z" fill="url(#paint7_linear_8301_236)"/>
<path d="M55 115C85.3757 115 110 112.985 110 110.5C110 108.015 85.3757 106 55 106C24.6243 106 0 108.015 0 110.5C0 112.985 24.6243 115 55 115Z" fill="white" fill-opacity="0.03"/>
<defs>
<linearGradient id="paint0_linear_8301_236" x1="47.1024" y1="91.3586" x2="55.5051" y2="91.1954" gradientUnits="userSpaceOnUse">
<stop offset="0.1327" stop-color="#6E5D00"/>
<stop offset="0.4712" stop-color="#4B3200"/>
<stop offset="0.6194" stop-color="#383007"/>
<stop offset="0.9337" stop-color="#003138"/>
</linearGradient>
<linearGradient id="paint1_linear_8301_236" x1="51.7171" y1="95.5295" x2="49.9018" y2="2.39493" gradientUnits="userSpaceOnUse">
<stop offset="0.0138911" stop-color="#057046"/>
<stop offset="1" stop-color="#169300"/>
</linearGradient>
<linearGradient id="paint2_linear_8301_236" x1="32.4115" y1="48.4441" x2="49.9126" y2="40.1422" gradientUnits="userSpaceOnUse">
<stop stop-color="#FFE23A"/>
<stop offset="0.9861" stop-color="#004227"/>
</linearGradient>
<linearGradient id="paint3_linear_8301_236" x1="34.1651" y1="28.5216" x2="51.6404" y2="15.7291" gradientUnits="userSpaceOnUse">
<stop stop-color="#FFE23A"/>
<stop offset="0.9861" stop-color="#004227"/>
</linearGradient>
<linearGradient id="paint4_linear_8301_236" x1="24.8662" y1="85.5568" x2="52.6739" y2="64.4267" gradientUnits="userSpaceOnUse">
<stop stop-color="#FFE23A"/>
<stop offset="0.9861" stop-color="#004227"/>
</linearGradient>
<linearGradient id="paint5_linear_8301_236" x1="17.57" y1="55.4211" x2="40.0701" y2="54.984" gradientUnits="userSpaceOnUse">
<stop stop-color="#FFE23A"/>
<stop offset="0.9861" stop-color="#004227"/>
</linearGradient>
<linearGradient id="paint6_linear_8301_236" x1="32.3802" y1="53.0062" x2="99.9233" y2="83.7639" gradientUnits="userSpaceOnUse">
<stop stop-color="#004B14"/>
<stop offset="0.7095" stop-color="#0C498D"/>
<stop offset="1" stop-color="#005667"/>
</linearGradient>
<linearGradient id="paint7_linear_8301_236" x1="29.8254" y1="44.6732" x2="22.8302" y2="56.2923" gradientUnits="userSpaceOnUse">
<stop stop-color="#004B14"/>
<stop offset="0.7095" stop-color="#0C498D"/>
<stop offset="1" stop-color="#005667"/>
</linearGradient>
</defs>
</svg>
