<svg width="176" height="107" viewBox="0 0 176 107" fill="none" xmlns="http://www.w3.org/2000/svg">
<path d="M1.37882 50.6115C2.98919 53.8337 4.59959 55.4448 7.82034 57.0559C11.0411 58.667 14.2618 57.0559 15.8722 57.0559C14.2618 58.667 12.6515 58.667 12.6515 61.8892C9.43077 61.8892 7.82034 63.5003 7.82034 66.7225C7.82034 68.3336 9.43067 71.5558 11.041 73.1669C11.041 73.1669 11.0411 74.778 9.4307 74.778C7.82032 76.3891 7.82032 79.6113 9.4307 81.2224C12.6514 84.4446 17.4826 86.0558 20.7034 84.4447C20.7034 89.278 28.7552 92.5001 31.976 90.889C33.5864 92.5001 33.5863 92.5002 35.1967 92.5002C36.8071 94.1113 38.4175 92.5002 40.0279 92.5002C40.0279 97.3335 44.859 103.778 49.6901 105.389C52.9108 107 52.9109 105.389 56.1316 105.389C59.3524 103.778 60.9627 107 64.1835 107C65.7939 107 67.4042 105.389 67.4042 102.167C67.4042 98.9446 73.8457 100.556 75.4561 98.9445C77.0664 97.3334 78.6769 95.7224 78.6769 94.1113C80.2873 94.1113 81.8976 94.1113 83.5079 94.1113C85.1183 98.9446 88.3392 102.167 93.1703 102.167C98.0014 102.167 101.222 98.9445 99.6117 95.7223C102.832 94.1112 102.833 90.889 101.222 87.6668C102.833 87.6668 106.053 87.6669 107.664 86.0558C112.495 87.6669 117.326 86.0557 118.936 81.2224C118.936 78.0002 117.326 76.3891 115.715 74.778C120.547 76.3891 123.767 76.3891 126.988 73.1669C130.209 68.3336 125.378 63.5003 120.547 63.5003C118.936 61.8892 118.936 61.8893 117.326 60.2782C118.936 60.2782 122.157 60.2781 123.767 58.667C125.378 58.667 125.378 57.0559 125.378 55.4448C130.209 55.4448 136.65 52.2226 135.04 45.7782C135.04 42.556 130.209 39.3338 126.988 40.9449C125.378 39.3338 123.767 39.3338 122.157 39.3338C123.767 37.7227 122.157 34.5005 118.936 31.2783C117.326 31.2783 115.715 29.6672 114.105 29.6672C114.105 28.0561 114.105 26.445 114.105 24.8339C112.495 21.6117 110.884 20.0006 107.664 20.0006C106.053 20.0006 106.053 15.1673 104.443 15.1673C104.443 13.5562 102.833 13.5562 101.222 13.5562C99.6118 13.5562 98.0014 13.5562 96.391 13.5562C93.1702 13.5562 91.5599 10.334 89.9495 8.72285C88.3391 7.11175 83.508 7.11175 81.8976 8.72285C78.6768 11.9451 81.8977 18.3894 77.0665 18.3894C78.6769 18.3894 73.8457 11.945 73.8457 10.3339C70.625 8.72283 69.0146 8.72292 65.7938 11.9451C64.1835 13.5562 59.3523 5.50072 59.3523 3.88962C57.7419 2.27852 56.1316 0.667345 54.5213 0.667345C51.3005 -0.943756 48.0798 0.66732 46.4694 2.27842L44.859 7.11177C43.2487 7.11177 41.6382 8.72285 40.0279 8.72285C38.4175 10.334 38.4175 10.334 38.4175 11.9451C38.4175 13.5562 36.8071 15.1673 35.1967 13.5562C35.1967 11.9451 35.1967 10.3339 33.5863 10.3339C30.3656 5.50062 20.7034 5.50072 20.7034 11.9451V16.7784C19.093 16.7784 17.4826 16.7783 15.8722 18.3894C14.2618 20.0005 14.2619 21.6117 14.2619 23.2228C9.43074 26.445 11.0411 29.6671 14.2619 34.5004C11.0411 36.1115 7.82039 36.1116 4.59964 39.3338C4.59964 40.9449 4.59964 40.9448 4.59964 42.556C1.37889 42.556 -1.84193 44.167 1.37882 50.6115ZM133.43 44.1671C135.04 44.1671 133.43 45.7782 133.43 45.7782C131.819 47.3893 131.819 44.1671 133.43 44.1671ZM131.819 42.556C133.43 42.556 133.43 44.167 131.819 42.556C130.209 44.167 131.819 42.556 131.819 42.556ZM128.599 40.9449C130.209 40.9449 130.209 42.556 128.599 42.556C126.988 42.556 126.988 40.9449 128.599 40.9449ZM125.378 66.7225C126.988 66.7225 126.988 68.3337 125.378 68.3337C123.767 68.3337 123.767 66.7225 125.378 66.7225ZM125.378 63.5003C126.988 63.5003 126.988 65.1114 125.378 65.1114C123.767 65.1114 123.767 63.5003 125.378 63.5003ZM120.547 49.0004C122.157 49.0004 122.157 49.0004 123.767 49.0004V50.6115C123.767 50.6115 122.157 50.6115 120.547 50.6115V49.0004ZM118.936 42.556C120.547 42.556 118.936 44.1671 118.936 44.1671C117.326 44.1671 117.326 42.556 118.936 42.556ZM120.547 65.1114C120.547 65.1114 120.547 66.7225 120.547 65.1114C118.936 65.1114 118.936 66.7225 120.547 65.1114ZM115.715 31.2783C117.326 31.2783 115.715 32.8894 115.715 32.8894C114.105 32.8894 115.715 31.2783 115.715 31.2783ZM109.274 44.1671C110.884 44.1671 109.274 45.7782 109.274 45.7782C107.664 45.7782 109.274 44.1671 109.274 44.1671ZM112.495 39.3338C112.495 39.3338 110.884 40.9449 110.884 39.3338C110.884 39.3338 110.884 39.3338 110.884 37.7227C110.884 36.1116 112.495 36.1116 114.105 36.1116C114.105 36.1116 114.105 36.1116 115.715 36.1116C114.105 36.1116 112.495 39.3338 112.495 39.3338ZM109.274 68.3337C110.884 68.3337 112.495 69.9447 112.495 69.9447C114.105 71.5558 110.884 73.1669 109.274 71.5558C109.274 71.5558 109.274 71.5558 107.664 71.5558C107.664 69.9447 107.664 68.3337 109.274 68.3337ZM104.443 47.3893C104.443 45.7782 106.053 45.7782 106.053 47.3893C107.664 47.3893 106.053 50.6115 104.443 50.6115C104.443 50.6115 102.833 49.0004 104.443 47.3893ZM101.222 24.8339C99.6118 24.8339 99.6118 26.445 101.222 24.8339C99.6118 23.2228 99.6117 23.2228 99.6117 23.2228C99.6117 21.6117 101.222 21.6117 101.222 23.2228C101.222 23.2228 102.833 23.2228 102.833 24.8339C102.833 24.8339 101.222 26.445 101.222 24.8339ZM99.6117 57.0559C101.222 55.4448 101.222 57.0559 102.833 58.667C102.833 60.2781 102.833 60.2781 101.222 61.8892H99.6117C98.0013 58.667 98.0013 58.667 99.6117 57.0559ZM94.7807 81.2224C96.391 81.2224 96.391 81.2224 98.0014 79.6113C99.6117 79.6113 99.6117 79.6113 99.6117 81.2224C99.6117 82.8335 99.6117 82.8335 98.0014 82.8335C96.391 82.8335 96.391 82.8336 94.7807 84.4447C93.1703 84.4447 93.1703 81.2224 94.7807 81.2224ZM91.5598 47.3893C93.1702 47.3893 93.1702 49.0004 91.5598 49.0004V47.3893ZM88.3391 13.5562C89.9495 13.5562 89.9495 15.1673 88.3391 13.5562C86.7288 15.1673 88.3391 13.5562 88.3391 13.5562ZM89.9495 52.2227C88.3391 50.6116 88.3391 52.2227 89.9495 52.2227C89.9495 50.6116 89.9495 52.2227 89.9495 52.2227ZM89.9495 76.3892C88.3391 74.7781 89.9495 76.3892 89.9495 76.3892C89.9495 74.7781 91.5599 76.3892 89.9495 76.3892ZM89.9495 84.4447C91.5599 84.4447 91.5599 86.0558 89.9495 86.0558C88.3391 86.0558 89.9495 84.4447 89.9495 84.4447ZM78.6769 31.2783C77.0665 29.6672 77.0665 31.2783 78.6769 31.2783C78.6769 29.6672 78.6769 31.2783 78.6769 31.2783ZM80.2872 61.8892C81.8976 61.8892 81.8976 63.5003 80.2872 63.5003V61.8892ZM80.2872 42.556C78.6769 42.556 78.6769 40.9449 80.2872 40.9449C81.8976 40.9449 81.8976 42.556 80.2872 42.556ZM85.1184 45.7782C86.7288 45.7782 85.1184 47.3893 85.1184 47.3893C83.508 47.3893 85.1184 45.7782 85.1184 45.7782ZM81.8976 32.8894C81.8976 32.8894 83.508 32.8894 81.8976 32.8894C83.508 32.8894 83.5079 32.8894 83.5079 32.8894C83.5079 34.5005 83.5079 34.5004 83.5079 34.5004H81.8976C81.8976 34.5004 81.8976 34.5005 81.8976 32.8894C81.8976 34.5005 81.8976 32.8894 81.8976 32.8894ZM80.2872 74.778C81.8976 73.1669 83.5079 73.1669 83.5079 74.778C83.5079 76.3891 85.1184 76.3892 85.1184 78.0003C85.1184 79.6114 81.8976 79.6114 81.8976 78.0003C80.2872 76.3892 80.2872 76.3891 80.2872 74.778ZM72.2354 20.0006C70.625 18.3895 72.2354 18.3895 72.2354 20.0006C72.2354 18.3895 72.2354 18.3894 72.2354 18.3894H73.8457V20.0006C73.8457 20.0006 73.8457 20.0006 72.2354 20.0006C72.2354 21.6117 72.2354 20.0006 72.2354 20.0006ZM75.4561 73.1669C73.8457 73.1669 72.2353 69.9447 73.8457 69.9447C75.4561 69.9447 77.0664 73.1669 75.4561 73.1669ZM75.4561 81.2224C77.0664 81.2224 77.0664 84.4447 75.4561 84.4447C72.2353 84.4447 73.8457 81.2224 75.4561 81.2224ZM62.5731 55.4448C64.1835 55.4448 64.1835 57.0559 62.5731 55.4448C62.5731 55.4448 62.5731 57.0559 62.5731 55.4448ZM57.742 23.2228C59.3523 23.2228 59.3523 23.2228 59.3523 23.2228C59.3523 23.2228 59.3523 23.2228 59.3523 24.8339C59.3523 24.8339 59.3523 24.8338 59.3523 26.4449C59.3523 26.4449 59.3523 28.056 57.742 26.4449C57.742 26.4449 57.742 24.8339 57.742 23.2228C57.742 24.8339 57.742 24.8339 57.742 23.2228ZM56.1316 10.3339C57.742 8.72283 59.3523 10.334 57.742 11.9451C57.742 11.9451 57.742 11.945 56.1316 10.3339C57.742 11.945 56.1316 11.9451 56.1316 11.9451C56.1316 11.9451 56.1316 11.945 56.1316 10.3339C54.5212 10.3339 54.5212 10.3339 56.1316 10.3339ZM52.9109 34.5004C54.5213 36.1115 54.5213 36.1115 52.9109 34.5004C54.5213 36.1115 54.5213 36.1115 52.9109 34.5004C54.5213 36.1115 54.5213 36.1116 54.5213 36.1116C54.5213 37.7227 52.9109 36.1116 52.9109 36.1116L51.3004 37.7227C51.3004 37.7227 49.6901 37.7227 49.6901 36.1116C49.6901 34.5005 49.6901 34.5004 49.6901 34.5004C51.3005 34.5004 51.3005 34.5004 52.9109 34.5004ZM52.9109 7.11177C51.3005 5.50067 51.3005 7.11177 52.9109 7.11177C52.9109 5.50067 52.9109 7.11177 52.9109 7.11177ZM57.742 73.1669C56.1316 73.1669 56.1316 71.5558 56.1316 71.5558C57.742 69.9447 59.3523 71.5558 57.742 73.1669C59.3523 71.5558 59.3523 71.5558 57.742 73.1669C59.3523 73.1669 59.3523 73.1669 57.742 73.1669ZM57.742 90.889C59.3523 90.889 59.3523 90.889 57.742 90.889C57.742 90.889 57.742 92.5001 57.742 90.889ZM56.1316 97.3334C57.742 97.3334 57.742 97.3334 57.742 98.9445V100.556C57.742 100.556 57.742 100.556 56.1316 100.556C54.5212 98.9446 56.1316 98.9445 56.1316 97.3334ZM52.9109 63.5003C54.5213 61.8892 54.5213 63.5003 52.9109 63.5003C51.3005 63.5003 51.3005 63.5003 52.9109 63.5003ZM48.0797 20.0006C48.0797 18.3895 48.0797 18.3895 48.0797 20.0006C49.6901 20.0006 49.6901 20.0006 48.0797 20.0006C49.6901 21.6117 49.6901 21.6117 49.6901 21.6117C48.0797 21.6117 48.0797 21.6117 48.0797 20.0006ZM41.6382 81.2224C43.2486 81.2224 43.2486 82.8335 41.6382 82.8335C40.0278 82.8335 40.0278 81.2224 41.6382 81.2224ZM31.976 21.6117C31.976 21.6117 31.976 23.2228 31.976 21.6117C30.3656 23.2228 30.3656 21.6117 30.3656 21.6117C30.3656 20.0006 31.976 20.0006 31.976 21.6117C33.5864 21.6117 31.976 20.0006 31.976 21.6117ZM35.1967 63.5003C36.8071 61.8892 36.8072 61.8892 36.8072 61.8892L38.4175 63.5003C38.4175 63.5003 38.4175 65.1114 36.8072 63.5003C36.8072 65.1114 36.8071 65.1114 35.1967 63.5003C36.8071 65.1114 36.8071 65.1114 35.1967 63.5003C36.8071 65.1114 36.8071 65.1114 35.1967 63.5003ZM36.8072 86.0558C36.8072 87.6669 38.4175 86.0558 36.8072 86.0558C35.1968 86.0558 35.1968 87.6669 36.8072 86.0558ZM33.5863 69.9447C35.1967 69.9447 35.1968 69.9447 36.8072 69.9447V71.5558C33.5864 73.1669 33.5863 73.1669 33.5863 69.9447C31.976 71.5558 31.976 71.5558 33.5863 69.9447ZM30.3656 28.0561C31.976 29.6672 31.976 29.6672 31.976 29.6672C31.976 29.6672 31.976 29.6672 31.976 31.2783C31.976 31.2783 31.976 31.2783 30.3656 31.2783C30.3656 31.2783 30.3657 31.2783 28.7553 31.2783C30.3657 31.2783 28.7553 29.6672 30.3656 28.0561C28.7553 29.6672 28.7553 28.0561 30.3656 28.0561ZM27.1448 15.1673C27.1448 13.5562 27.1448 15.1673 27.1448 15.1673C28.7552 11.9451 28.7552 13.5562 27.1448 15.1673ZM25.5345 45.7782C25.5345 44.1671 25.5344 44.1671 27.1448 44.1671C27.1448 44.1671 27.1449 44.1671 28.7553 44.1671L30.3656 45.7782C30.3656 47.3893 30.3656 47.3893 30.3656 49.0004H28.7553C27.1449 47.3893 25.5345 47.3893 25.5345 45.7782ZM23.9241 34.5004C25.5345 34.5004 25.5345 34.5004 23.9241 34.5004C22.3137 34.5004 23.9241 36.1115 23.9241 34.5004ZM22.3137 28.0561C22.3137 26.445 22.3137 26.445 22.3137 28.0561C23.9241 28.0561 23.9241 28.0561 22.3137 28.0561ZM19.0929 28.0561C19.0929 29.6672 19.0929 29.6672 19.0929 28.0561C17.4825 29.6672 17.4825 29.6672 19.0929 28.0561C17.4825 29.6672 17.4825 29.6672 19.0929 28.0561C15.8722 29.6672 15.8722 28.0561 19.0929 28.0561C19.0929 28.0561 17.4825 28.0561 19.0929 28.0561ZM19.0929 45.7782C17.4825 45.7782 19.0929 45.7782 19.0929 45.7782C17.4825 45.7782 17.4826 44.1671 17.4826 44.1671C19.0929 42.556 19.0929 42.556 19.0929 45.7782C19.0929 45.7782 19.0929 44.1671 19.0929 45.7782ZM20.7034 65.1114C19.093 65.1114 19.093 65.1114 20.7034 65.1114C19.093 63.5003 19.093 65.1114 20.7034 65.1114C19.093 63.5003 20.7034 60.2781 22.3137 61.8892C22.3137 63.5003 20.7034 63.5003 20.7034 65.1114ZM19.0929 78.0003C19.0929 78.0003 20.7033 76.3892 19.0929 78.0003C19.0929 79.6114 20.7033 79.6114 19.0929 78.0003ZM17.4826 74.778C15.8722 73.1669 17.4826 74.778 17.4826 74.778C19.0929 73.1669 19.0929 74.778 17.4826 74.778ZM14.2619 40.9449C12.6515 39.3338 14.2619 40.9449 14.2619 40.9449C12.6515 39.3338 14.2619 37.7227 14.2619 39.3338C15.8722 39.3338 14.2619 40.9449 14.2619 40.9449ZM12.6515 52.2227C14.2619 52.2227 14.2619 53.8337 12.6515 53.8337V52.2227ZM11.041 50.6115C11.041 50.6115 12.6514 52.2226 11.041 50.6115C9.43067 50.6115 9.43067 52.2226 11.041 50.6115ZM7.82034 45.7782C9.43072 45.7782 9.43072 47.3893 7.82034 47.3893C7.82034 47.3893 6.20997 45.7782 7.82034 45.7782Z" fill="url(#paint0_radial_1_4369)"/>
<path opacity="0.6" d="M1.37809 50.6117C2.98847 53.8339 4.59887 55.4451 7.81962 57.0562C11.0404 58.6673 14.2611 57.0562 15.8715 57.0562C14.2611 58.6673 12.6508 58.6673 12.6508 61.8895C9.43005 61.8895 7.81962 63.5005 7.81962 66.7227C7.81962 68.3338 9.42995 71.5561 11.0403 73.1672C11.0403 73.1672 11.0403 74.7783 9.42997 74.7783C7.8196 76.3894 7.8196 79.6116 9.42997 81.2227C12.6507 84.4449 17.4819 86.0561 20.7027 84.445C20.7027 89.2783 28.7545 92.5004 31.9753 90.8893C33.5856 92.5004 33.5856 92.5005 35.196 92.5005C36.8063 94.1116 38.4168 92.5005 40.0271 92.5005C40.0271 97.3338 44.8582 103.778 49.6894 105.389C52.9101 107 52.9101 105.389 56.1309 105.389C59.3516 103.778 60.962 107 64.1828 107C65.7932 107 67.4035 105.389 67.4035 102.167C67.4035 98.9448 73.845 100.556 75.4554 98.9448C77.0657 97.3337 78.6762 95.7226 78.6762 94.1115C80.2866 94.1115 81.8969 94.1115 83.5072 94.1115C85.1176 98.9448 88.3385 102.167 93.1696 102.167C98.0007 102.167 101.221 98.9448 99.611 95.7226C102.832 94.1115 102.832 90.8893 101.221 87.6671C102.832 87.6671 106.052 87.6671 107.663 86.056C112.494 87.6671 117.325 86.056 118.936 81.2227C118.936 78.0005 117.325 76.3894 115.715 74.7783C120.546 76.3894 123.767 76.3894 126.987 73.1672C130.208 68.3339 125.377 63.5006 120.546 63.5006C118.936 61.8895 118.936 61.8895 117.325 60.2784C118.936 60.2784 122.156 60.2783 123.767 58.6672C125.377 58.6672 125.377 57.0562 125.377 55.4451C130.208 55.4451 136.65 52.2229 135.039 45.7785C135.039 42.5563 130.208 39.334 126.987 40.9451C125.377 39.334 123.767 39.3341 122.156 39.3341C123.767 37.723 123.767 36.1118 122.156 34.5007C122.156 34.5007 117.325 36.1119 118.936 37.723C120.546 39.3341 120.546 37.7229 120.546 40.9451C120.546 44.1674 117.325 45.7785 114.104 47.3896H112.494C109.273 47.3896 107.663 44.1673 106.053 42.5562C106.053 42.5562 106.053 42.5562 104.442 42.5562C104.442 42.5562 104.442 42.5563 104.442 40.9451V39.3341C102.832 37.723 102.832 34.5007 99.611 32.8896C98.0006 32.8896 96.3903 34.5007 94.7799 32.8896C93.1696 34.5007 91.5592 37.723 93.1696 39.3341C94.78 40.9452 94.7799 40.9451 96.3903 42.5562C98.0007 44.1673 98.0007 45.7785 96.3903 47.3896C94.7799 49.0007 93.1695 49.0006 91.5591 50.6117C89.9487 52.2228 88.3384 55.4451 86.7281 57.0562C83.5073 60.2784 78.6762 57.0562 77.0658 53.834C75.4555 50.6118 77.0657 47.3896 75.4554 45.7785C75.4554 45.7785 75.4554 45.7785 73.845 44.1674C72.2346 42.5563 69.0139 44.1673 67.4035 42.5562C65.7931 40.9451 65.7932 37.723 64.1828 36.1119C62.5724 32.8897 57.7413 36.1118 56.1309 32.8896C56.1309 31.2785 56.1309 29.6675 56.1309 29.6675C56.1309 24.8342 51.2998 26.4452 48.079 26.4452C46.4686 26.4452 44.8582 26.4452 43.2478 24.8341C43.2478 24.8341 41.6375 24.8342 41.6375 23.2231C40.0271 21.612 40.0271 20.0009 41.6375 20.0009C43.2479 16.7787 48.079 15.1675 48.079 10.3342C46.4686 10.3342 46.4686 8.72312 48.079 8.72312C48.079 7.11202 46.4687 5.50099 46.4687 3.88989L44.8583 5.50097L43.2478 10.3342C41.6375 10.3342 40.0272 11.9454 38.4168 11.9454C36.8064 13.5565 36.8064 13.5565 36.8064 15.1676C36.8064 16.7787 35.196 18.3897 33.5856 16.7786C33.5856 15.1675 33.5856 13.5565 31.9753 13.5565C28.7545 8.72317 19.0922 8.72315 19.0922 15.1676V20.0009C17.4818 20.0009 15.8715 20.0009 14.2611 21.612C12.6508 23.2231 12.6508 24.8341 12.6508 26.4452C7.81967 29.6674 9.43005 32.8897 12.6508 37.723C9.43005 39.3341 6.2092 39.334 2.98844 42.5562C2.98844 44.1673 2.98844 44.1674 2.98844 45.7785C1.37807 42.5563 -1.84266 44.1673 1.37809 50.6117ZM133.429 44.1674C135.039 44.1674 133.429 45.7785 133.429 45.7785C131.819 47.3896 131.819 44.1674 133.429 44.1674ZM131.819 42.5562C133.429 42.5562 133.429 44.1673 131.819 42.5562C130.208 44.1673 131.819 42.5562 131.819 42.5562ZM128.598 40.9451C130.208 40.9451 130.208 42.5562 128.598 42.5562C126.987 42.5562 126.987 40.9451 128.598 40.9451ZM120.546 49.0007C122.156 49.0007 122.156 49.0007 123.767 49.0007V50.6117C123.767 50.6117 122.156 50.6117 120.546 50.6117V49.0007ZM125.377 66.7227C126.987 66.7227 126.987 68.3339 125.377 68.3339C123.767 68.3339 123.767 66.7227 125.377 66.7227ZM125.377 63.5006C126.987 63.5006 126.987 65.1117 125.377 65.1117C123.767 65.1117 123.767 63.5006 125.377 63.5006ZM120.546 65.1117C120.546 65.1117 120.546 66.7228 120.546 65.1117C118.936 65.1117 118.936 66.7228 120.546 65.1117ZM109.273 45.7785C107.663 45.7785 109.273 44.1674 109.273 44.1674C110.884 44.1674 110.884 45.7785 109.273 45.7785ZM109.273 68.3339C110.884 68.3339 112.494 69.945 112.494 69.945C114.104 71.5561 110.884 73.1672 109.273 71.5561C109.273 71.5561 109.273 71.5561 107.663 71.5561C107.663 69.945 107.663 68.3339 109.273 68.3339ZM104.442 47.3896C104.442 45.7785 106.053 45.7785 106.053 47.3896C107.663 47.3896 106.053 50.6117 104.442 50.6117C104.442 50.6117 102.832 49.0007 104.442 47.3896ZM99.611 57.0562C101.221 55.4451 101.221 57.0561 102.832 58.6672C102.832 60.2783 102.832 60.2784 101.221 61.8895H99.611C98.0006 58.6673 98.0006 58.6673 99.611 57.0562ZM94.7799 81.2227C96.3903 81.2227 96.3903 81.2227 98.0006 79.6116C99.611 79.6116 99.611 79.6116 99.611 81.2227C99.611 82.8338 99.611 82.8338 98.0006 82.8338C96.3903 82.8338 96.3903 82.8339 94.7799 84.445C93.1696 84.445 93.1696 81.2227 94.7799 81.2227ZM89.9488 76.3895C88.3384 74.7784 89.9488 76.3895 89.9488 76.3895C89.9488 74.7784 91.5591 76.3895 89.9488 76.3895ZM89.9488 84.445C91.5591 84.445 91.5591 86.056 89.9488 86.056C88.3384 86.056 89.9488 84.445 89.9488 84.445ZM81.8969 63.5006C80.2865 63.5006 80.2865 61.8895 81.8969 61.8895V63.5006ZM80.2865 74.7783C81.8969 73.1672 83.5072 73.1672 83.5072 74.7783C83.5072 76.3894 85.1177 76.3894 85.1177 78.0005C85.1177 79.6116 81.8969 79.6116 81.8969 78.0005C80.2865 76.3894 80.2865 76.3894 80.2865 74.7783ZM75.4554 73.1672C73.845 73.1672 72.2346 69.945 73.845 69.945C75.4554 69.945 77.0657 73.1672 75.4554 73.1672ZM75.4554 81.2227C77.0657 81.2227 77.0657 84.445 75.4554 84.445C72.2346 84.445 73.845 81.2227 75.4554 81.2227ZM62.5724 55.4451C64.1828 55.4451 64.1828 57.0562 62.5724 55.4451C62.5724 55.4451 62.5724 57.0562 62.5724 55.4451ZM57.7412 23.2231C59.3516 23.2231 59.3516 23.2231 59.3516 23.2231C59.3516 23.2231 59.3516 23.223 59.3516 24.8341C59.3516 24.8341 59.3516 24.8341 59.3516 26.4452C59.3516 26.4452 59.3516 28.0563 57.7412 26.4452C57.7412 26.4452 57.7412 24.8342 57.7412 23.2231C57.7412 24.8342 57.7412 24.8342 57.7412 23.2231ZM54.5205 36.1119C54.5205 37.723 54.5205 37.723 54.5205 36.1119C52.9102 36.1119 52.9102 36.1119 52.9102 36.1119L51.2997 37.723C51.2997 37.723 49.6894 37.723 49.6894 36.1119C49.6894 34.5008 49.6894 34.5007 49.6894 34.5007C49.6894 34.5007 49.6893 34.5007 51.2997 34.5007C51.2997 34.5007 52.9102 34.5008 52.9102 36.1119C52.9102 34.5008 52.9102 34.5008 54.5205 36.1119ZM57.7412 73.1672C56.1309 73.1672 56.1309 71.5561 56.1309 71.5561C57.7413 69.945 59.3516 71.5561 57.7412 73.1672C59.3516 71.5561 59.3516 71.5561 57.7412 73.1672C59.3516 73.1672 59.3516 73.1672 57.7412 73.1672ZM57.7412 90.8893C59.3516 90.8893 59.3516 90.8893 57.7412 90.8893C57.7412 90.8893 57.7412 92.5004 57.7412 90.8893ZM56.1309 97.3337C57.7413 97.3337 57.7412 97.3337 57.7412 98.9448V100.556C57.7412 100.556 57.7413 100.556 56.1309 100.556C54.5205 98.9449 56.1309 98.9448 56.1309 97.3337ZM52.9102 63.5006C54.5206 61.8895 54.5206 63.5006 52.9102 63.5006C51.2998 63.5006 51.2998 63.5006 52.9102 63.5006ZM41.6375 81.2227C43.2479 81.2227 43.2479 82.8338 41.6375 82.8338C40.0271 82.8338 40.0271 81.2227 41.6375 81.2227ZM31.9753 21.612C31.9753 21.612 31.9753 23.2231 31.9753 21.612C30.3649 23.2231 30.3649 21.612 30.3649 21.612C30.3649 20.0009 31.9753 20.0009 31.9753 21.612C33.5856 21.612 31.9753 20.0009 31.9753 21.612ZM35.196 63.5006C36.8063 61.8895 36.8064 61.8895 36.8064 61.8895L38.4168 63.5006C38.4168 63.5006 38.4168 65.1117 36.8064 63.5006C36.8064 65.1117 36.8063 65.1117 35.196 63.5006C36.8063 65.1117 36.8063 65.1117 35.196 63.5006C36.8063 65.1117 36.8063 65.1117 35.196 63.5006ZM36.8064 86.056C36.8064 87.6671 38.4168 86.056 36.8064 86.056C35.1961 86.056 35.1961 87.6671 36.8064 86.056ZM33.5856 69.945C35.196 69.945 35.1961 69.945 36.8064 69.945V71.5561C33.5857 73.1672 33.5856 73.1672 33.5856 69.945C31.9752 71.5561 31.9752 71.5561 33.5856 69.945ZM30.3649 28.0564C31.9753 29.6675 31.9753 29.6675 31.9753 29.6675C31.9753 29.6675 31.9753 29.6675 31.9753 31.2786C31.9753 31.2786 31.9753 31.2786 30.3649 31.2786C30.3649 31.2786 30.3649 31.2786 28.7546 31.2786C30.3649 31.2786 28.7545 29.6675 30.3649 28.0564C28.7545 29.6675 28.7545 28.0564 30.3649 28.0564ZM27.1441 15.1676C27.1441 13.5565 27.1441 15.1676 27.1441 15.1676C28.7545 11.9453 28.7545 13.5565 27.1441 15.1676ZM25.5337 45.7785C25.5337 44.1674 25.5337 44.1674 27.1441 44.1674C27.1441 44.1674 27.1442 44.1674 28.7546 44.1674L30.3649 45.7785C30.3649 47.3896 30.3649 47.3896 30.3649 49.0007H28.7546C27.1442 47.3896 25.5337 47.3896 25.5337 45.7785ZM23.9234 34.5007C25.5338 34.5007 25.5338 34.5007 23.9234 34.5007C22.313 34.5007 23.9234 36.1118 23.9234 34.5007ZM22.313 28.0564C22.313 26.4453 22.313 26.4453 22.313 28.0564C23.9234 28.0564 23.9234 28.0564 22.313 28.0564ZM19.0922 28.0564C19.0922 29.6675 19.0922 29.6675 19.0922 28.0564C17.4818 29.6675 17.4818 29.6675 19.0922 28.0564C17.4818 29.6675 17.4818 29.6675 19.0922 28.0564C15.8714 29.6675 15.8714 28.0564 19.0922 28.0564C19.0922 28.0564 17.4818 28.0564 19.0922 28.0564ZM19.0922 45.7785C17.4818 45.7785 19.0922 45.7785 19.0922 45.7785C17.4818 45.7785 17.4818 44.1674 17.4818 44.1674C19.0922 42.5563 19.0922 42.5563 19.0922 45.7785C19.0922 45.7785 19.0922 44.1674 19.0922 45.7785ZM20.7027 65.1117C19.0923 65.1117 19.0923 65.1117 20.7027 65.1117C19.0923 63.5006 19.0923 65.1117 20.7027 65.1117C19.0923 63.5006 20.7027 60.2784 22.313 61.8895C22.313 63.5006 20.7027 63.5006 20.7027 65.1117ZM19.0922 78.0005C19.0922 78.0005 20.7026 76.3894 19.0922 78.0005C19.0922 79.6116 20.7026 79.6116 19.0922 78.0005ZM17.4818 74.7783C15.8715 73.1672 17.4818 74.7783 17.4818 74.7783C19.0922 73.1672 19.0922 74.7783 17.4818 74.7783ZM14.2611 40.9451C12.6508 39.334 14.2611 40.9451 14.2611 40.9451C12.6508 39.334 14.2611 37.723 14.2611 39.3341C15.8715 39.3341 14.2611 40.9451 14.2611 40.9451ZM12.6508 52.2229C14.2612 52.2229 14.2612 53.834 12.6508 53.834V52.2229ZM11.0403 50.6117C11.0403 50.6117 12.6507 52.2228 11.0403 50.6117C9.42995 50.6117 9.42995 52.2228 11.0403 50.6117ZM7.81962 45.7785C9.43 45.7785 9.43 47.3896 7.81962 47.3896C7.81962 47.3896 6.20924 45.7785 7.81962 45.7785Z" fill="url(#paint1_radial_1_4369)"/>
<path opacity="0.4" d="M1.37654 50.6114C2.98691 53.8336 4.59731 55.4447 7.81806 57.0558C11.0388 58.6669 14.2596 57.0558 15.8699 57.0558C14.2596 58.6669 12.6492 58.667 12.6492 61.8892C9.42849 61.8892 7.81806 63.5002 7.81806 66.7224C7.81806 68.3335 9.42839 71.5557 11.0388 73.1668C11.0388 73.1668 11.0388 74.7779 9.42842 74.7779C7.81804 76.389 7.81804 79.6113 9.42842 81.2224C12.6492 84.4446 17.4804 86.0557 20.7011 84.4446C20.7011 89.2779 28.753 92.5 31.9737 90.8889C33.5841 92.5 33.584 92.5001 35.1944 92.5001C36.8048 94.1112 38.4152 92.5001 40.0256 92.5001C40.0256 97.3334 44.8567 103.778 49.6878 105.389C52.9086 107 52.9086 105.389 56.1293 105.389C59.3501 103.778 60.9605 107 64.1812 107C65.7916 107 67.4019 105.389 67.4019 102.167C67.4019 98.9445 73.8434 100.556 75.4538 98.9444C77.0642 97.3333 78.6746 95.7223 78.6746 94.1112C80.285 94.1112 81.8953 94.1112 83.5057 94.1112C85.1161 98.9445 88.3369 102.167 93.168 102.167C97.9992 102.167 101.22 98.9445 99.6094 95.7223C102.83 94.1112 102.83 90.889 101.22 87.6668C102.83 87.6668 106.051 87.6668 107.661 86.0557C112.492 87.6668 117.324 86.0557 118.934 81.2224C118.934 78.0002 117.324 76.389 115.713 74.7779C120.544 76.389 123.765 76.389 126.986 73.1668C130.207 68.3335 125.375 63.5003 120.544 63.5003C118.934 61.8892 118.934 61.8892 117.324 60.2781C118.934 60.2781 122.155 60.278 123.765 58.6669C125.375 58.6669 125.376 57.0559 125.376 55.4448C130.207 55.4448 136.648 52.2226 135.038 45.7782C135.038 44.1671 135.038 44.167 133.427 42.5559C130.207 45.7781 133.427 50.6115 128.596 53.8337C125.375 55.4448 122.155 55.4448 118.934 53.8337H117.324C115.713 53.8337 114.103 53.8337 112.492 53.8337C109.272 55.4448 107.661 53.8337 107.661 52.2226C106.051 57.0559 110.882 58.667 114.103 63.5003C115.713 65.1114 117.324 63.5002 118.934 65.1113C120.544 71.5557 109.272 69.9446 106.051 66.7224C102.83 63.5002 106.051 73.1668 104.441 74.7779C104.441 76.389 97.9991 78.0002 96.3887 78.0002C94.7784 78.0002 93.1679 78.0001 91.5576 74.7779C91.5576 73.1668 89.9472 71.5558 89.9472 69.9447C89.9472 68.3336 88.3369 65.1114 86.7265 68.3336H85.1161C85.1161 66.7225 83.5057 65.1113 83.5057 65.1113C80.2849 66.7224 80.285 68.3336 81.8953 69.9447C81.8953 69.9447 81.8953 71.5558 83.5057 71.5558C83.5057 73.1669 83.5057 76.3891 81.8953 76.3891C81.8953 78.0002 81.8953 78.0002 83.5057 79.6113C83.5057 81.2224 80.285 81.2224 80.285 79.6113C78.6746 81.2224 77.0642 82.8335 75.4538 84.4446C75.4538 86.0557 75.4538 87.6668 73.8434 87.6668C72.2331 87.6668 72.2331 87.6668 72.2331 86.0557C70.6227 87.6668 69.0123 87.6668 65.7916 84.4446C64.1812 82.8335 64.1812 81.2224 62.5709 79.6113C60.9605 78.0002 59.35 76.389 59.35 74.7779C57.7397 71.5557 57.7397 69.9447 59.35 68.3336C62.5708 63.5003 69.0123 65.1113 65.7916 57.0558C64.1812 55.4447 64.1812 52.2225 64.1812 50.6114C64.1812 49.0003 62.5709 47.3892 62.5709 47.3892C62.5709 49.0004 62.5709 52.2226 62.5709 53.8337C60.9605 55.4448 59.3501 57.0558 57.7397 58.6669C54.5189 63.5002 49.6879 68.3336 44.8568 68.3336C43.2464 68.3336 40.0256 68.3335 38.4152 66.7224C38.4152 66.7224 38.4152 66.7225 38.4152 68.3336C38.4152 68.3336 38.4153 69.9447 36.8049 68.3336V66.7224C35.1945 66.7224 35.1944 65.1114 33.5841 63.5003C31.9737 61.8892 33.5841 60.278 33.5841 58.6669C33.5841 57.0558 36.8048 53.8337 33.5841 53.8337C31.9737 53.8337 31.9737 53.8337 31.9737 52.2226C27.1426 47.3893 41.6359 42.5559 33.5841 39.3337C28.7529 37.7226 25.5322 36.1116 27.1425 29.6672C28.7529 24.8339 25.5322 20.0005 27.1425 15.1672C27.1425 13.5561 28.753 11.9451 28.753 11.9451C27.1426 11.9451 25.5322 13.5561 25.5322 16.7783V21.6117C23.9218 21.6117 22.3115 21.6116 20.7011 23.2227C19.0907 24.8338 19.0906 26.445 19.0906 28.0561C14.2595 31.2783 15.8699 34.5004 19.0906 39.3337C15.8699 40.9448 12.6492 40.9449 9.42842 44.1671C9.42842 45.7782 9.42842 45.7781 9.42842 47.3892C1.37654 42.5559 -1.84421 44.167 1.37654 50.6114ZM62.5709 55.4448C64.1812 55.4448 64.1812 57.0559 62.5709 55.4448C62.5709 55.4448 62.5709 57.0559 62.5709 55.4448ZM125.376 66.7224C126.986 66.7224 126.986 68.3336 125.376 68.3336C123.765 68.3336 123.765 66.7224 125.376 66.7224ZM125.376 63.5003C126.986 63.5003 126.986 65.1113 125.376 65.1113C123.765 65.1113 123.765 63.5003 125.376 63.5003ZM109.272 68.3336C110.882 68.3336 112.492 69.9447 112.492 69.9447C114.103 71.5558 110.882 73.1669 109.272 71.5558C109.272 71.5558 109.272 71.5558 107.661 71.5558C107.661 69.9447 107.661 68.3336 109.272 68.3336ZM94.7784 81.2224C96.3888 81.2224 96.3887 81.2224 97.9991 79.6113C99.6095 79.6113 99.6094 79.6113 99.6094 81.2224C99.6094 82.8335 99.6095 82.8334 97.9991 82.8334C96.3887 82.8334 96.3888 82.8335 94.7784 84.4446C93.168 84.4446 93.168 81.2224 94.7784 81.2224ZM89.9472 76.3891C88.3368 74.778 89.9472 76.3891 89.9472 76.3891C89.9472 74.778 91.5576 76.3891 89.9472 76.3891ZM89.9472 84.4446C91.5576 84.4446 91.5576 86.0557 89.9472 86.0557C88.3368 86.0557 89.9472 84.4446 89.9472 84.4446ZM57.7397 73.1668C56.1293 73.1668 56.1293 71.5558 56.1293 71.5558C57.7397 69.9447 59.3501 71.5557 57.7397 73.1668C59.3501 71.5557 59.3501 71.5557 57.7397 73.1668C59.3501 73.1668 59.3501 73.1668 57.7397 73.1668ZM57.7397 90.8889C59.3501 90.8889 59.3501 90.8889 57.7397 90.8889C57.7397 90.8889 57.7397 92.5 57.7397 90.8889ZM56.1293 97.3334C57.7397 97.3334 57.7397 97.3333 57.7397 98.9444V100.556C57.7397 100.556 57.7397 100.556 56.1293 100.556C54.519 98.9445 56.1293 98.9445 56.1293 97.3334ZM52.9086 63.5003C54.519 61.8892 54.519 63.5003 52.9086 63.5003C51.2983 63.5003 51.2983 63.5003 52.9086 63.5003ZM41.6359 81.2224C43.2463 81.2224 43.2463 82.8334 41.6359 82.8334C40.0256 82.8334 40.0256 81.2224 41.6359 81.2224ZM36.8049 86.0557C36.8049 87.6668 38.4153 86.0557 36.8049 86.0557C35.1945 86.0557 35.1945 87.6668 36.8049 86.0557ZM33.5841 69.9447C35.1944 69.9447 35.1945 69.9447 36.8049 69.9447V71.5558C33.5841 73.1669 33.5841 73.1669 33.5841 69.9447C31.9737 71.5558 31.9737 71.5558 33.5841 69.9447ZM25.5322 45.7782C25.5322 44.1671 25.5322 44.1671 27.1425 44.1671C27.1425 44.1671 27.1426 44.1671 28.753 44.1671L30.3634 45.7782C30.3634 47.3893 30.3634 47.3892 30.3634 49.0003H28.753C27.1426 47.3892 25.5322 47.3893 25.5322 45.7782ZM23.9218 34.5004C25.5322 34.5004 25.5322 34.5004 23.9218 34.5004C22.3114 34.5004 23.9218 36.1115 23.9218 34.5004ZM22.3115 28.0561C22.3115 26.445 22.3115 26.445 22.3115 28.0561C23.9218 28.0561 23.9218 28.0561 22.3115 28.0561ZM19.0906 28.0561C19.0906 29.6672 19.0906 29.6672 19.0906 28.0561C17.4803 29.6672 17.4803 29.6672 19.0906 28.0561C17.4803 29.6672 17.4803 29.6672 19.0906 28.0561C15.8699 29.6672 15.8699 28.0561 19.0906 28.0561C19.0906 28.0561 17.4803 28.0561 19.0906 28.0561ZM19.0906 45.7782C17.4803 45.7782 19.0906 45.7782 19.0906 45.7782C17.4803 45.7782 17.4803 44.1671 17.4803 44.1671C19.0907 42.556 19.0906 42.556 19.0906 45.7782C19.0906 45.7782 19.0906 44.1671 19.0906 45.7782ZM20.7011 65.1113C19.0907 65.1113 19.0907 65.1113 20.7011 65.1113C19.0907 63.5002 19.0907 65.1113 20.7011 65.1113C19.0907 63.5002 20.7011 60.2781 22.3115 61.8892C22.3115 63.5003 20.7011 63.5002 20.7011 65.1113ZM19.0906 78.0002C19.0906 78.0002 20.701 76.3891 19.0906 78.0002C19.0906 79.6113 20.701 79.6113 19.0906 78.0002ZM17.4803 74.7779C15.8699 73.1668 17.4803 74.7779 17.4803 74.7779C19.0907 73.1668 19.0907 74.7779 17.4803 74.7779ZM14.2596 40.9448C12.6492 39.3337 14.2596 40.9448 14.2596 40.9448C12.6492 39.3337 14.2596 37.7226 14.2596 39.3337C15.87 39.3337 14.2596 40.9448 14.2596 40.9448ZM12.6492 52.2226C14.2596 52.2226 14.2596 53.8337 12.6492 53.8337V52.2226ZM11.0388 50.6114C11.0388 50.6114 12.6491 52.2225 11.0388 50.6114C9.42839 50.6114 9.42839 52.2225 11.0388 50.6114ZM7.81806 45.7782C9.42844 45.7782 9.42844 47.3892 7.81806 47.3892C7.81806 47.3892 6.20769 45.7782 7.81806 45.7782Z" fill="url(#paint2_radial_1_4369)"/>
<path opacity="0.4" d="M1.37882 50.6113C2.98919 53.8335 4.59959 55.4447 7.82035 57.0558C11.0411 58.6669 14.2618 57.0558 15.8722 57.0558C14.2618 58.6669 12.6515 58.6669 12.6515 61.8891C9.43077 61.8891 7.82035 63.5001 7.82035 66.7223C7.82035 68.3334 9.43067 71.5557 11.041 73.1668C11.041 73.1668 11.0411 74.7778 9.4307 74.7778C7.82032 76.3889 7.82032 79.6112 9.4307 81.2223C12.6514 84.4445 17.4826 86.0556 20.7034 84.4445C20.7034 89.2779 28.7552 92.5 31.976 90.8889C33.5864 92.5 33.5863 92.5001 35.1967 92.5001C36.8071 94.1112 38.4175 92.5001 40.0279 92.5001C40.0279 97.3334 44.859 103.778 49.6901 105.389C52.9108 107 52.9109 105.389 56.1316 105.389C59.3524 103.778 60.9627 107 64.1835 107C65.7939 107 67.4042 105.389 67.4042 102.167C67.4042 98.9444 73.8457 100.555 75.4561 98.9444C77.0665 97.3333 78.6769 95.7222 78.6769 94.1111C80.2873 94.1111 81.8976 94.1111 83.508 94.1111C85.1183 98.9444 88.3392 102.167 93.1703 102.167C98.0014 102.167 101.222 98.9444 99.6117 95.7222C102.832 94.1111 102.833 90.8889 101.222 87.6667C102.833 87.6667 106.053 87.6667 107.664 86.0556C112.495 87.6667 117.326 86.0556 118.936 81.2223C118.936 78.0001 117.326 76.3889 115.715 74.7778C118.936 76.3889 122.157 76.3889 125.378 74.7778C123.767 74.7778 123.767 73.1668 122.157 73.1668C120.547 73.1668 114.105 71.5556 114.105 74.7778C114.105 76.3889 115.715 78.0001 115.715 79.6112C115.715 82.8334 112.495 84.4445 110.884 84.4445C109.274 84.4445 106.053 84.4445 104.443 84.4445C101.222 84.4445 98.0014 86.0556 94.7807 87.6667C93.1703 87.6667 91.5599 87.6667 89.9495 87.6667C86.7287 84.4445 83.508 87.6667 80.2873 89.2778C78.6769 89.2778 77.0665 90.8889 75.4561 90.8889C72.2353 90.8889 70.625 92.5 67.4042 94.1111C64.1834 95.7222 59.3524 95.7222 56.1316 94.1111C52.9109 90.8889 49.6901 87.6667 46.4694 84.4445C44.859 82.8334 41.6383 84.4445 38.4175 82.8334C36.8071 82.8334 33.5864 78.0001 31.976 79.6112C28.7552 82.8334 25.5345 79.6112 22.3138 78.0001C19.093 76.389 15.8722 74.7779 15.8722 71.5557C15.8722 68.3335 17.4826 66.7224 19.0929 63.5002C22.3137 60.278 17.4826 53.8335 15.8722 50.6113C14.2618 47.3891 9.43072 49.0003 7.82035 47.3892C6.20997 45.7781 7.82032 42.5558 9.4307 40.9447C9.4307 40.9447 9.43067 39.3337 11.041 39.3337C14.2618 36.1115 22.3137 34.5003 15.8722 26.4448C14.2618 24.8337 14.2619 24.8338 14.2619 23.2227C9.43075 26.4449 11.0411 29.667 14.2619 34.5003C11.0411 36.1114 7.82039 36.1115 4.59964 39.3337C4.59964 40.9448 4.59964 40.9447 4.59964 42.5558C1.37889 42.5558 -1.84193 44.1669 1.37882 50.6113ZM17.4826 28.056C17.4826 28.056 19.093 28.056 17.4826 28.056C19.093 29.6671 19.093 29.6671 17.4826 28.056C17.4826 29.6671 17.4826 29.6671 17.4826 28.056C17.4826 29.6671 17.4826 29.6671 17.4826 28.056C15.8722 29.6671 15.8722 28.056 17.4826 28.056ZM89.9495 84.4445C91.5599 84.4445 91.5599 86.0556 89.9495 86.0556C88.3391 86.0556 89.9495 84.4445 89.9495 84.4445ZM57.742 90.8889C59.3523 90.8889 59.3523 90.8889 57.742 90.8889C57.742 90.8889 57.742 92.5 57.742 90.8889ZM56.1316 97.3333C57.742 97.3333 57.742 97.3333 57.742 98.9444V100.556C57.742 100.556 57.742 100.556 56.1316 100.556C54.5212 98.9445 56.1316 98.9444 56.1316 97.3333ZM41.6382 81.2223C43.2486 81.2223 43.2486 82.8334 41.6382 82.8334C40.0278 82.8334 40.0278 81.2223 41.6382 81.2223ZM36.8072 86.0556C36.8072 87.6667 38.4175 86.0556 36.8072 86.0556C35.1968 86.0556 35.1968 87.6667 36.8072 86.0556ZM19.0929 65.1113C19.0929 63.5002 19.0929 65.1113 19.0929 65.1113C19.0929 63.5002 20.7034 61.8891 20.7034 61.8891V63.5002C20.7034 65.1113 20.7033 65.1113 19.0929 65.1113ZM19.0929 78.0001C19.0929 78.0001 20.7033 76.389 19.0929 78.0001C19.0929 79.6112 20.7033 79.6112 19.0929 78.0001ZM17.4826 74.7778C15.8722 73.1667 17.4826 74.7778 17.4826 74.7778C19.093 73.1667 19.093 74.7778 17.4826 74.7778ZM12.6515 52.2225C14.2619 52.2225 14.2619 53.8336 12.6515 53.8336V52.2225ZM11.041 50.6113C11.041 50.6113 12.6514 52.2224 11.041 50.6113C9.43067 50.6113 9.43067 52.2224 11.041 50.6113ZM7.82035 45.7781C9.43072 45.7781 9.43072 47.3892 7.82035 47.3892C7.82035 47.3892 6.20997 45.7781 7.82035 45.7781Z" fill="url(#paint3_radial_1_4369)"/>
<path opacity="0.2" d="M56.1304 15.1672C64.1822 18.3894 62.5719 28.0561 72.2341 28.0561C73.8445 28.0561 77.0653 29.6671 78.6756 31.2782C80.286 31.2782 80.286 32.8893 78.6756 32.8893C80.286 34.5004 81.8963 36.1116 83.5067 37.7227C83.5067 37.7227 83.5067 37.7227 83.5067 36.1116V34.5004C83.5067 34.5004 83.5068 34.5004 85.1172 34.5004C85.1172 34.5004 86.7275 34.5005 86.7275 36.1116C86.7275 37.7227 86.7275 37.7227 86.7275 37.7227C88.3379 39.3338 91.5587 40.9448 94.7794 40.9448C98.0002 40.9448 98.0001 36.1115 98.0001 32.8893C98.0001 26.4449 106.052 29.6671 109.273 31.2782C112.494 32.8893 114.104 31.2783 115.714 36.1116C117.325 37.7227 117.325 37.7226 117.325 39.3337C118.935 40.9448 120.545 40.9448 122.156 40.9448H123.766C125.376 40.9448 125.376 39.3338 123.766 37.7227C123.766 34.5005 123.766 32.8893 120.545 32.8893C115.714 32.8893 117.325 28.056 115.714 24.8338C115.714 23.2227 112.494 23.2227 110.883 23.2227C107.662 21.6116 107.662 20.0005 106.052 18.3894C104.442 18.3894 102.831 16.7783 102.831 18.3894C99.6105 20.0005 99.6105 15.1672 98.0001 15.1672C96.3897 15.1672 94.7794 15.1672 94.7794 15.1672C94.7794 16.7783 94.7794 16.7783 94.7794 18.3894C94.7794 20.0005 96.3898 21.6116 94.7794 23.2227C94.7794 24.8338 91.5586 31.2782 88.3379 26.4449C88.3379 24.8338 86.7275 24.8338 86.7275 23.2227C85.1172 21.6116 81.8964 18.3894 78.6756 16.7783C77.0653 16.7783 77.0652 15.1672 75.4548 16.7783C75.4548 16.7783 72.2341 20.0006 72.2341 21.6117C72.2341 20.0006 70.6238 18.3894 69.0134 16.7783C67.403 15.1672 64.1823 13.5562 62.5719 13.5562C62.5719 13.5562 62.5719 13.5562 60.9615 13.5562C60.9615 13.5562 60.9614 13.5562 59.3511 13.5562C54.5199 13.5562 54.52 13.5561 56.1304 15.1672ZM115.714 31.2782C117.325 31.2782 115.714 32.8893 115.714 32.8893C114.104 32.8893 115.714 31.2782 115.714 31.2782ZM98.0001 23.2227C98.0001 21.6116 99.6105 21.6116 99.6105 23.2227C99.6105 23.2227 101.221 23.2227 101.221 24.8338C101.221 26.4449 101.221 26.4449 99.6105 26.4449H98.0001C98.0001 24.8338 98.0001 23.2227 98.0001 23.2227ZM70.6238 18.3894C72.2341 16.7783 72.2341 18.3894 70.6238 18.3894C72.2341 18.3894 72.2341 18.3894 73.8445 18.3894V20.0006C72.2341 21.6117 72.2341 20.0005 70.6238 18.3894C72.2341 20.0005 72.2341 20.0005 70.6238 18.3894C72.2341 20.0005 72.2341 20.0005 70.6238 18.3894C72.2341 18.3894 70.6238 18.3894 70.6238 18.3894Z" fill="#FFF791"/>
<path opacity="0.2" d="M38.4167 20.0006C40.0271 23.2228 41.6375 24.8338 44.8582 26.4449C48.079 29.6671 44.8582 32.8894 46.4686 36.1116C46.4686 37.7227 52.9101 39.3337 52.9101 40.9448C51.2997 44.167 49.6893 45.7781 49.6893 49.0003L51.2996 50.6114C54.5204 49.0003 57.7412 49.0004 60.962 47.3893C64.1827 44.1671 60.9619 40.9449 65.793 39.3338C69.0138 37.7227 67.4034 32.8893 64.1827 32.8893C62.5723 32.8893 60.9619 32.8894 59.3515 31.2783C56.1307 29.6672 57.7411 28.056 57.7411 26.4449C57.7411 24.8338 56.1308 23.2228 54.5204 21.6117C52.9101 20.0006 48.0789 20.0006 46.4686 20.0006C46.4686 18.3895 46.4686 16.7783 44.8582 16.7783C43.2478 18.3894 40.0271 18.3895 38.4167 20.0006C38.4167 20.0006 38.4167 18.3895 38.4167 20.0006ZM49.6893 36.1116C49.6893 34.5005 49.6893 34.5004 49.6893 34.5004C49.6893 34.5004 49.6892 34.5004 51.2996 34.5004C51.2996 34.5004 52.9101 34.5005 52.9101 36.1116C52.9101 36.1116 52.9101 36.1116 52.9101 37.7227C52.9101 39.3338 51.2996 37.7227 51.2996 37.7227C52.91 37.7227 51.2996 37.7227 49.6893 36.1116C51.2996 37.7227 49.6893 36.1116 49.6893 36.1116Z" fill="#FFF791"/>
<path d="M41.6357 37.7222C43.2449 37.7222 44.8541 37.7221 43.2449 39.3332C43.2449 40.9443 41.6357 39.3332 41.6357 39.3332C40.0264 39.3332 40.0264 37.7222 41.6357 37.7222Z" fill="#F15A22"/>
<path d="M38.4169 42.5552C40.0261 42.5552 40.0261 42.5552 38.4169 42.5552C40.0261 42.5552 40.0261 42.5552 38.4169 42.5552C40.0261 42.5552 40.0261 42.5552 38.4169 42.5552C40.0261 44.1663 40.0261 44.1664 38.4169 44.1664C38.4169 44.1664 38.4169 44.1663 38.4169 42.5552Z" fill="#F15A22"/>
<path d="M46.4699 45.7777C46.4699 44.1666 46.4699 44.1666 46.4699 45.7777C48.0791 44.1666 48.0791 44.1666 46.4699 45.7777C48.0791 44.1666 48.0791 44.1666 46.4699 45.7777C48.0791 44.1666 48.0791 44.1666 46.4699 45.7777C48.0791 45.7777 48.0791 45.7777 48.0791 45.7777C49.6884 45.7777 48.0791 45.7777 46.4699 45.7777C48.0791 45.7777 48.0791 45.7777 46.4699 45.7777C48.0791 45.7777 48.0791 45.7777 46.4699 45.7777Z" fill="#F15A22"/>
<path d="M38.4167 73.1667C38.4167 73.1667 40.0259 73.1667 38.4167 73.1667C40.0259 74.7778 40.0259 74.7778 38.4167 74.7778C38.4167 74.7778 38.4167 74.7778 38.4167 73.1667C38.4167 74.7778 38.4167 73.1667 38.4167 73.1667Z" fill="#F15A22"/>
<path d="M46.4699 76.3887C46.4699 74.7776 46.4699 74.7776 46.4699 76.3887C46.4699 74.7776 46.4699 74.7776 46.4699 76.3887C48.0791 74.7776 48.0791 74.7776 46.4699 76.3887C48.0791 76.3887 48.0791 76.3887 48.0791 76.3887C48.0791 77.9998 48.0791 77.9998 46.4699 76.3887C46.4699 77.9998 46.4699 76.3887 46.4699 76.3887Z" fill="#F15A22"/>
<path d="M89.949 23.2227C91.5583 23.2227 93.1675 24.8337 91.5583 24.8337H89.949C88.3398 24.8337 88.3398 23.2227 89.949 23.2227Z" fill="#F15A22"/>
<path d="M88.3374 28.0564C89.9467 29.6675 89.9467 29.6675 88.3374 29.6675C86.7282 29.6675 86.7282 29.6675 88.3374 28.0564C86.7282 29.6675 86.7282 28.0564 88.3374 28.0564Z" fill="#F15A22"/>
<path d="M96.3904 31.2784C94.7811 31.2784 96.3904 31.2784 96.3904 31.2784C96.3904 29.6673 96.3904 29.6673 96.3904 31.2784C96.3904 29.6673 96.3904 29.6673 96.3904 31.2784C97.9996 31.2784 97.9996 31.2784 97.9996 31.2784C97.9996 32.8895 96.3904 32.8895 96.3904 31.2784C96.3904 32.8895 96.3904 32.8895 96.3904 31.2784Z" fill="#F15A22"/>
<path d="M85.1174 66.7226C86.7277 68.3337 86.7277 69.9449 89.9484 69.9449C91.5588 69.9449 93.1692 69.9449 96.39 69.9449C94.7796 69.9449 94.7796 71.5559 94.7796 73.167C93.1692 73.167 91.5588 74.7782 91.5588 76.3893C91.5588 78.0004 93.1692 79.6115 94.7796 79.6115C94.7796 79.6115 94.7796 79.6114 94.7796 81.2225C94.7796 82.8336 93.1692 84.4448 94.7796 86.0559C96.39 89.2781 99.6107 89.2781 102.831 87.667C102.831 90.8892 107.663 92.5003 110.883 92.5003L112.494 94.1114C114.104 94.1114 114.104 94.1114 115.714 94.1114C115.714 97.3336 118.935 100.556 122.156 102.167C123.766 102.167 125.377 102.167 126.987 102.167C128.597 100.556 130.208 103.778 131.818 102.167C133.429 102.167 133.429 100.556 133.429 98.9446C133.429 97.3335 136.649 97.3336 138.26 95.7225C139.87 95.7225 139.87 94.1114 139.87 92.5003C141.48 92.5003 141.48 92.5003 143.091 92.5003C143.091 95.7225 146.312 97.3336 149.532 97.3336C152.753 97.3336 154.363 95.7225 152.753 92.5003C154.363 90.8892 154.363 89.2781 152.753 87.667C154.363 87.667 155.974 87.667 155.974 86.0559C159.195 86.0559 162.415 86.0558 162.415 82.8336C162.415 81.2225 162.415 79.6115 160.805 79.6115C164.026 81.2226 167.246 81.2226 168.857 78.0004C172.078 74.7782 167.246 71.556 164.026 71.556C164.026 69.9449 162.415 69.9449 162.415 69.9449C164.026 69.9449 165.636 69.9449 167.247 68.3338L168.857 66.7226C172.078 66.7226 176.909 65.1116 175.298 60.2783C175.298 58.6672 172.078 55.4449 170.467 57.056C168.857 57.056 168.857 57.056 167.247 57.056C168.857 55.4449 167.247 53.8339 165.636 52.2228C164.026 52.2228 164.026 50.6116 162.415 50.6116C162.415 49.0005 162.415 49.0005 162.415 47.3894C160.805 45.7783 160.805 44.1673 157.584 44.1673L155.974 40.945L154.363 39.3339C152.753 39.3339 152.753 39.3339 151.143 39.3339C149.532 39.3339 147.922 37.7229 146.312 36.1118C144.701 34.5007 143.091 34.5007 141.481 36.1118C139.87 37.7229 141.48 42.5561 138.26 42.5561C139.87 42.5561 136.649 37.7229 135.039 37.7229C131.818 36.1118 131.818 37.7229 128.597 37.7229C126.987 37.7229 125.377 34.5006 123.766 32.8895C122.156 31.2784 122.156 31.2784 120.546 31.2784C118.935 29.6673 115.714 31.2784 115.714 32.8895C115.714 32.8895 115.714 36.1118 114.104 36.1118C112.494 36.1118 112.494 36.1118 110.883 37.7229L109.273 39.3339C109.273 40.945 107.663 40.945 107.663 40.945C107.663 40.945 107.663 39.334 107.663 37.7229C106.052 34.5007 99.6107 34.5006 99.6107 39.3339V42.5561C98.0003 42.5561 98.0003 42.5561 96.39 42.5561C94.7796 42.5561 94.7796 44.1673 96.39 45.7784C93.1692 47.3895 94.7796 50.6117 96.39 52.2228C94.7796 52.2228 91.5588 53.8338 89.9484 55.4449V57.056C85.1173 60.2782 83.507 61.8893 85.1174 66.7226ZM170.467 61.8894C172.078 61.8894 172.078 63.5005 170.467 61.8894C170.467 61.8894 170.467 63.5005 170.467 61.8894ZM170.467 60.2783C170.467 60.2783 170.467 61.8894 170.467 60.2783C168.857 60.2783 168.857 61.8894 170.467 60.2783ZM167.247 60.2783C167.247 60.2783 167.247 61.8894 167.247 60.2783C167.247 60.2783 167.247 61.8894 167.247 60.2783ZM165.636 76.3893C165.636 76.3893 165.636 78.0004 165.636 76.3893C164.026 76.3893 164.026 78.0004 165.636 76.3893ZM165.636 74.7781C165.636 74.7781 165.636 76.3892 165.636 74.7781C164.026 74.7781 164.026 76.3892 165.636 74.7781ZM162.415 65.1115H164.026V66.7226C164.026 66.7226 164.026 66.7226 162.415 65.1115C164.026 66.7226 162.415 66.7226 162.415 65.1115C162.415 66.7226 162.415 65.1115 162.415 65.1115ZM160.805 61.8894C162.415 61.8894 162.415 61.8894 160.805 61.8894V61.8894ZM162.415 76.3893C160.805 76.3893 160.805 76.3893 162.415 76.3893V76.3893ZM159.195 53.8339C159.195 53.8339 159.195 55.445 159.195 53.8339C159.195 53.8339 159.195 55.445 159.195 53.8339ZM154.363 61.8894C155.974 61.8894 155.974 63.5005 154.363 61.8894C154.363 61.8894 154.363 63.5005 154.363 61.8894ZM157.584 58.6671C155.974 58.6671 155.974 58.6671 157.584 58.6671C155.974 58.6671 155.974 58.6671 155.974 58.6671C155.974 57.056 157.584 57.056 157.584 57.056V58.6671ZM154.363 78.0004C155.974 78.0004 155.974 78.0004 157.584 79.6115C157.584 81.2226 155.974 81.2225 155.974 81.2225C155.974 81.2225 155.974 81.2225 154.363 81.2225C154.363 79.6114 154.363 78.0004 154.363 78.0004ZM151.143 63.5005C151.143 63.5005 152.753 63.5005 151.143 63.5005C152.753 65.1116 154.363 63.5005 151.143 63.5005C151.143 65.1116 151.143 65.1116 151.143 63.5005ZM149.532 50.6116C147.922 50.6116 149.532 50.6116 149.532 50.6116C147.922 49.0005 147.922 49.0005 149.532 50.6116C147.922 49.0005 149.532 49.0005 149.532 49.0005C149.532 49.0005 149.532 49.0005 149.532 50.6116C151.143 49.0005 149.532 50.6116 149.532 50.6116ZM147.922 69.9449H149.532V71.556H147.922C147.922 71.556 147.922 71.556 147.922 69.9449ZM146.312 86.0559H147.922C147.922 86.0559 149.532 86.0559 149.532 87.667C149.532 87.667 149.532 89.278 147.922 89.278H146.312C144.701 87.6669 144.701 86.0559 146.312 86.0559ZM143.091 63.5005C144.701 63.5005 144.701 65.1116 143.091 63.5005C143.091 63.5005 143.091 65.1116 143.091 63.5005ZM141.481 42.5561C141.481 44.1672 143.091 42.5561 141.481 42.5561C141.481 42.5561 141.481 44.1672 141.481 42.5561ZM141.481 68.3338C141.481 66.7227 141.481 68.3338 141.481 68.3338C143.091 66.7227 143.091 68.3338 141.481 68.3338ZM143.091 82.8336C141.48 81.2225 141.48 82.8336 143.091 82.8336C143.091 81.2225 143.091 82.8336 143.091 82.8336ZM143.091 87.667C143.091 87.667 143.091 89.2781 143.091 87.667C141.48 87.667 141.48 89.2781 143.091 87.667ZM135.039 53.8339C133.429 53.8339 135.039 52.2228 135.039 53.8339C135.039 52.2228 135.039 53.8339 135.039 53.8339ZM136.649 73.167C136.649 73.167 136.649 74.7781 136.649 73.167C136.649 74.7781 136.649 74.7781 136.649 73.167ZM136.649 61.8894C135.039 60.2783 136.649 61.8894 136.649 61.8894C136.649 60.2783 136.649 61.8894 136.649 61.8894ZM139.87 63.5005C138.26 63.5005 138.26 63.5005 139.87 63.5005V63.5005ZM136.649 55.4449C136.649 53.8338 138.26 53.8338 136.649 55.4449C138.26 53.8338 138.26 53.8338 136.649 55.4449C138.26 55.4449 138.26 55.4449 136.649 55.4449C138.26 55.4449 138.26 55.4449 136.649 55.4449C138.26 57.056 138.26 57.056 138.26 57.056C138.26 57.056 138.26 57.056 136.649 57.056C138.26 55.4449 138.26 55.4449 136.649 55.4449ZM136.649 81.2225C136.649 79.6114 138.26 81.2225 138.26 81.2225V82.8336C138.26 84.4447 136.649 84.4447 136.649 82.8336C136.649 82.8336 136.649 82.8336 136.649 81.2225C136.649 82.8336 135.039 82.8336 136.649 81.2225ZM130.208 45.7784C130.208 44.1673 130.208 44.1673 130.208 45.7784C131.818 44.1673 131.818 44.1673 130.208 45.7784C131.818 45.7784 131.818 45.7784 130.208 45.7784C131.818 45.7784 131.818 45.7784 130.208 45.7784C131.818 45.7784 131.818 45.7784 130.208 45.7784C131.818 47.3895 130.208 45.7784 130.208 45.7784ZM133.429 81.2225C131.818 81.2225 131.818 79.6115 133.429 79.6115V81.2225ZM133.429 86.0559C135.039 86.0559 135.039 87.667 133.429 87.667C131.818 89.2781 131.818 86.0559 133.429 86.0559ZM125.377 68.3338C125.377 68.3338 125.377 69.9449 125.377 68.3338C123.766 68.3338 123.766 69.9449 125.377 68.3338ZM120.546 49.0005C122.156 49.0005 122.156 49.0005 120.546 49.0005C122.156 49.0005 122.156 49.0005 120.546 49.0005C122.156 49.0005 122.156 49.0005 120.546 49.0005C122.156 49.0005 122.156 49.0005 120.546 49.0005C122.156 49.0005 122.156 50.6116 122.156 50.6116C122.156 50.6116 122.156 50.6116 120.546 49.0005ZM120.546 39.3339C120.546 39.3339 122.156 40.945 120.546 39.3339C120.546 40.945 120.546 40.945 120.546 39.3339C120.546 40.945 120.546 40.945 120.546 39.3339C120.546 40.945 120.546 40.945 120.546 39.3339C120.546 40.945 120.546 39.3339 120.546 39.3339ZM118.935 55.4449C118.935 57.056 118.935 57.056 118.935 55.4449C118.935 57.056 118.935 57.056 118.935 55.4449C118.935 57.056 118.935 57.056 118.935 55.4449C118.935 58.6671 118.935 57.056 118.935 55.4449C118.935 57.056 118.935 57.056 118.935 55.4449C118.935 57.056 117.325 57.056 117.325 57.056C117.325 57.056 117.325 55.4449 118.935 55.4449C117.325 55.4449 117.325 55.4449 118.935 55.4449C118.935 55.4449 117.325 55.4449 118.935 55.4449ZM117.325 37.7229C118.935 37.7229 118.935 37.7229 117.325 37.7229V37.7229ZM122.156 81.2225C120.546 81.2225 122.156 81.2225 122.156 81.2225C120.546 79.6114 120.546 79.6114 122.156 81.2225C122.156 79.6114 120.546 79.6114 122.156 81.2225C122.156 79.6114 122.156 79.6114 122.156 81.2225ZM122.156 92.5003C120.546 92.5003 122.156 92.5003 122.156 92.5003V92.5003ZM120.546 97.3336C120.546 95.7225 120.546 95.7225 120.546 97.3336C120.546 97.3336 122.156 97.3336 120.546 97.3336C122.156 97.3336 122.156 97.3336 120.546 97.3336C120.546 98.9447 120.546 98.9447 120.546 97.3336C120.546 98.9447 120.546 98.9447 120.546 97.3336C120.546 98.9447 120.546 98.9447 120.546 97.3336C122.156 98.9447 120.546 98.9447 120.546 97.3336C120.546 98.9447 120.546 98.9447 120.546 97.3336C120.546 98.9447 120.546 98.9447 120.546 97.3336ZM118.935 74.7781C117.325 74.7781 117.325 74.7781 118.935 74.7781V74.7781ZM115.714 45.7784C115.714 47.3895 115.714 47.3895 115.714 45.7784C114.104 47.3895 115.714 47.3895 115.714 45.7784C114.104 45.7784 114.104 45.7784 115.714 45.7784ZM110.883 86.0559C110.883 86.0559 110.883 87.667 110.883 86.0559C109.273 86.0559 110.883 87.667 110.883 86.0559ZM104.442 47.3894C104.442 47.3894 104.442 49.0005 104.442 47.3894C102.831 47.3894 104.442 47.3894 104.442 47.3894C106.052 47.3894 104.442 45.7783 104.442 47.3894ZM107.663 74.7781C109.273 74.7781 109.273 74.7781 107.663 74.7781C109.273 74.7781 109.273 74.7781 109.273 74.7781C109.273 76.3892 109.273 76.3892 107.663 74.7781C107.663 76.3892 107.663 76.3892 107.663 74.7781C107.663 76.3892 107.663 76.3892 107.663 74.7781ZM107.663 89.278C107.663 89.278 109.273 89.278 107.663 89.278C107.663 89.278 107.663 90.8891 107.663 89.278ZM104.442 79.6115C106.052 79.6115 106.052 79.6115 104.442 79.6115C106.052 79.6115 106.052 79.6115 104.442 79.6115C106.052 79.6115 106.052 79.6115 104.442 79.6115C107.663 79.6115 106.052 79.6115 104.442 79.6115C106.052 81.2226 106.052 81.2226 104.442 79.6115C106.052 81.2226 106.052 81.2226 104.442 79.6115ZM102.831 52.2228C104.442 52.2228 104.442 52.2228 102.831 52.2228C104.442 52.2228 104.442 52.2228 102.831 52.2228C104.442 52.2228 104.442 52.2228 102.831 52.2228C104.442 53.8339 104.442 53.8339 104.442 53.8339C104.442 53.8339 104.442 53.8339 102.831 52.2228C102.831 53.8339 102.831 52.2228 102.831 52.2228ZM101.221 42.5561C101.221 40.945 101.221 42.5561 101.221 42.5561C102.832 40.945 102.832 42.5561 101.221 42.5561ZM101.221 63.5005C101.221 61.8894 101.221 61.8894 101.221 63.5005C101.221 61.8894 102.832 61.8894 101.221 63.5005C102.832 61.8894 104.442 63.5005 102.831 63.5005V65.1115C101.221 65.1115 101.221 65.1116 101.221 63.5005ZM99.6107 55.4449C98.0003 55.4449 99.6107 57.056 99.6107 55.4449V55.4449ZM98.0003 50.6116C99.6107 50.6116 99.6107 52.2227 98.0003 50.6116C98.0003 52.2227 98.0003 52.2227 98.0003 50.6116ZM96.39 52.2228C94.7796 52.2228 96.39 52.2228 96.39 52.2228C94.7796 52.2228 94.7796 52.2228 96.39 52.2228C94.7796 52.2228 94.7796 52.2228 96.39 52.2228C96.39 52.2228 94.7796 52.2228 96.39 52.2228ZM96.39 63.5005C94.7796 63.5005 96.39 63.5005 96.39 63.5005C94.7796 61.8894 94.7796 61.8894 96.39 63.5005C96.39 61.8894 96.39 60.2782 96.39 63.5005C96.39 61.8894 96.39 61.8894 96.39 63.5005ZM96.39 76.3893C96.39 74.7782 96.39 76.3893 96.39 76.3893C96.39 74.7782 96.39 74.7782 96.39 76.3893C96.39 74.7782 96.39 73.167 96.39 74.7781C98.0003 74.7781 98.0003 74.7782 96.39 76.3893C98.0003 74.7782 98.0003 74.7782 96.39 76.3893C98.0003 74.7782 98.0003 74.7782 96.39 76.3893C98.0003 76.3893 96.39 76.3893 96.39 76.3893ZM96.39 84.4448C96.39 82.8337 96.39 84.4448 96.39 84.4448C96.39 84.4448 98.0003 84.4448 96.39 84.4448ZM96.39 81.2225C94.7796 81.2225 94.7796 81.2225 96.39 81.2225V81.2225ZM93.1693 60.2783C93.1693 58.6672 93.1693 60.2783 93.1693 60.2783C91.5589 58.6672 93.1693 58.6672 93.1693 60.2783C93.1693 60.2783 93.1693 58.6672 93.1693 60.2783ZM93.1693 68.3338C91.5589 68.3338 91.5589 68.3338 93.1693 68.3338V68.3338ZM89.9484 65.1115C91.5588 65.1115 91.5588 66.7226 89.9484 65.1115C89.9484 66.7226 89.9484 66.7226 89.9484 65.1115ZM88.3381 63.5005C89.9485 63.5005 89.9485 63.5005 88.3381 63.5005C88.3381 63.5005 88.3381 65.1116 88.3381 63.5005Z" fill="url(#paint4_radial_1_4369)"/>
<path opacity="0.6" d="M85.1184 66.7219C86.7288 68.333 86.7287 69.9442 89.9495 69.9442C91.5599 69.9442 93.1703 69.9442 96.391 69.9442C94.7806 69.9442 94.7807 71.5552 94.7807 73.1663C93.1703 73.1663 91.5598 74.7775 91.5598 76.3886C91.5598 77.9997 93.1703 79.6108 94.7807 79.6108C94.7807 79.6108 94.7807 79.6107 94.7807 81.2218C94.7807 82.8329 93.1703 84.4441 94.7807 86.0552C96.391 89.2774 99.6118 89.2774 102.833 87.6663C102.833 90.8885 107.664 92.4996 110.884 92.4996L112.495 94.1107C114.105 94.1107 114.105 94.1107 115.715 94.1107C115.715 97.3329 118.936 100.555 122.157 102.166C123.767 102.166 125.378 102.166 126.988 102.166C128.599 100.555 130.209 103.777 131.819 102.166C133.43 102.166 133.43 100.555 133.43 98.9439C133.43 97.3328 136.65 97.3329 138.261 95.7218C139.871 95.7218 139.871 94.1107 139.871 92.4996C141.481 92.4996 141.482 92.4996 143.092 92.4996C143.092 95.7218 146.313 97.3328 149.533 97.3328C152.754 97.3328 154.365 95.7218 152.754 92.4996C154.365 90.8885 154.365 89.2774 152.754 87.6663C154.365 87.6663 155.975 87.6663 155.975 86.0552C159.196 86.0552 162.416 86.0551 162.416 82.8329C162.416 81.2218 162.416 79.6108 160.806 79.6108C164.027 81.2219 167.248 81.2219 168.858 77.9997C172.079 74.7775 167.248 71.5553 164.027 71.5553C164.027 69.9442 162.416 69.9442 162.416 69.9442C164.027 69.9442 165.637 69.9442 167.248 68.3331L168.858 66.7219C172.079 66.7219 176.91 65.1109 175.299 60.2776C175.299 58.6665 172.079 55.4442 170.468 57.0553C168.858 57.0553 168.858 57.0553 167.248 57.0553C167.248 55.4442 167.248 55.4443 167.248 53.8332C167.248 53.8332 164.027 55.4442 165.637 55.4442C167.248 57.0553 167.248 55.4442 167.248 57.0553C167.248 58.6664 165.637 60.2776 164.027 61.8887H162.416C160.806 61.8887 159.196 60.2775 159.196 58.6664C159.196 58.6664 159.196 58.6664 159.196 57.0553C159.196 55.4442 157.585 53.8332 155.975 53.8332C155.975 53.8332 154.365 53.8332 152.754 53.8332C151.144 55.4443 151.144 57.0553 151.144 58.6664L152.754 60.2776C152.754 60.2776 152.754 61.8887 152.754 63.4998C151.144 65.1109 149.533 63.4997 149.533 65.1108C147.923 66.7219 147.923 68.3331 146.313 69.9442C144.702 71.5553 141.481 69.9442 139.871 68.3331C138.261 66.722 139.871 63.4998 138.261 61.8887C136.65 61.8887 135.04 61.8887 133.43 60.2776C131.819 58.6665 131.819 57.0553 131.819 55.4442C130.209 52.222 126.988 55.4443 126.988 53.8332V52.2221C126.988 48.9999 123.767 48.9998 122.157 50.6109C120.547 50.6109 120.547 50.6109 118.936 50.6109C118.936 50.6109 118.936 48.9998 118.936 47.3887C120.547 45.7776 123.767 44.1665 123.767 40.9443C123.767 40.9443 122.157 39.3332 123.767 39.3332C123.767 37.7221 123.767 37.7222 122.157 36.1111C122.157 36.1111 122.157 36.1111 120.547 37.7222C120.547 37.7222 120.547 40.9443 118.936 40.9443C117.326 40.9443 117.326 40.9443 115.715 42.5554L114.105 44.1666C114.105 45.7777 112.495 45.7777 112.495 45.7777C112.495 45.7777 112.495 44.1665 112.495 42.5554C110.884 39.3332 104.443 39.3333 104.443 44.1666V47.3887C102.833 47.3887 102.833 47.3887 101.222 47.3887C99.6118 47.3887 99.6118 48.9998 101.222 50.6109C98.0014 52.222 99.6118 55.4442 101.222 57.0553C99.6118 57.0553 96.391 58.6665 94.7807 60.2776V61.8887C85.1184 60.2776 83.508 61.8886 85.1184 66.7219ZM170.468 61.8887C172.079 61.8887 172.079 63.4998 170.468 61.8887C170.468 61.8887 170.468 63.4998 170.468 61.8887ZM170.468 60.2776C170.468 60.2776 170.468 61.8887 170.468 60.2776C168.858 60.2776 168.858 61.8887 170.468 60.2776ZM167.248 60.2776C167.248 60.2776 167.248 61.8887 167.248 60.2776C167.248 60.2776 167.248 61.8887 167.248 60.2776ZM162.416 65.1108H164.027V66.7219C164.027 66.7219 164.027 66.7219 162.416 65.1108C164.027 66.7219 162.416 66.7219 162.416 65.1108C162.416 66.7219 162.416 65.1108 162.416 65.1108ZM165.637 76.3886C165.637 76.3886 165.637 77.9997 165.637 76.3886C164.027 76.3886 164.027 77.9997 165.637 76.3886ZM165.637 74.7774C165.637 74.7774 165.637 76.3885 165.637 74.7774C164.027 74.7774 164.027 76.3885 165.637 74.7774ZM162.416 76.3886C160.806 76.3886 160.806 76.3886 162.416 76.3886V76.3886ZM154.365 63.4998C154.365 61.8887 154.365 63.4998 154.365 63.4998C155.975 61.8887 155.975 63.4998 154.365 63.4998ZM154.365 77.9997C155.975 77.9997 155.975 77.9997 157.585 79.6108C157.585 81.2219 155.975 81.2218 155.975 81.2218C155.975 81.2218 155.975 81.2218 154.365 81.2218C154.365 79.6107 154.365 77.9997 154.365 77.9997ZM151.144 63.4998C151.144 63.4998 152.754 63.4998 151.144 63.4998C152.754 65.1109 154.365 63.4998 151.144 63.4998C151.144 65.1109 151.144 65.1109 151.144 63.4998ZM147.923 69.9442H149.533V71.5553H147.923C147.923 71.5553 147.923 71.5553 147.923 69.9442ZM146.313 86.0552H147.923C147.923 86.0552 149.533 86.0552 149.533 87.6663C149.533 87.6663 149.533 89.2773 147.923 89.2773H146.313C144.702 87.6662 144.702 86.0552 146.313 86.0552ZM143.092 82.8329C141.482 81.2218 141.482 82.8329 143.092 82.8329C143.092 81.2218 143.092 82.8329 143.092 82.8329ZM143.092 87.6663C143.092 87.6663 143.092 89.2774 143.092 87.6663C141.482 87.6663 141.482 89.2774 143.092 87.6663ZM136.65 74.7774C136.65 73.1663 136.65 74.7774 136.65 74.7774V74.7774ZM136.65 81.2218C136.65 79.6107 138.261 81.2218 138.261 81.2218V82.8329C138.261 84.444 136.65 84.444 136.65 82.8329C136.65 82.8329 136.65 82.8329 136.65 81.2218C136.65 82.8329 135.04 82.8329 136.65 81.2218ZM133.43 81.2218C131.819 81.2218 131.819 79.6108 133.43 79.6108V81.2218ZM133.43 86.0552C135.04 86.0552 135.04 87.6663 133.43 87.6663C131.819 89.2774 131.819 86.0552 133.43 86.0552ZM125.378 68.3331C125.378 68.3331 125.378 69.9442 125.378 68.3331C123.767 68.3331 123.767 69.9442 125.378 68.3331ZM120.547 48.9998C122.157 48.9998 122.157 48.9998 120.547 48.9998C122.157 48.9998 122.157 48.9998 120.547 48.9998C122.157 48.9998 122.157 48.9998 120.547 48.9998C122.157 48.9998 122.157 48.9998 120.547 48.9998C122.157 48.9998 122.157 50.6109 122.157 50.6109C122.157 50.6109 122.157 50.6109 120.547 48.9998ZM118.936 57.0553C118.936 57.0553 118.936 58.6664 118.936 57.0553C117.326 57.0553 117.326 57.0553 117.326 57.0553V55.4442C117.326 55.4442 118.936 55.4442 118.936 57.0553C118.936 55.4442 118.936 55.4442 118.936 57.0553ZM122.157 81.2218C120.547 81.2218 122.157 81.2218 122.157 81.2218C120.547 79.6107 120.547 79.6107 122.157 81.2218C122.157 79.6107 120.547 79.6107 122.157 81.2218C122.157 79.6107 122.157 79.6107 122.157 81.2218ZM122.157 92.4996C120.547 92.4996 122.157 92.4996 122.157 92.4996V92.4996ZM120.547 97.3328C120.547 95.7217 120.547 95.7217 120.547 97.3328C120.547 97.3328 122.157 97.3328 120.547 97.3328C122.157 97.3328 122.157 97.3328 120.547 97.3328C120.547 98.9439 120.547 98.9439 120.547 97.3328C120.547 98.9439 120.547 98.9439 120.547 97.3328C120.547 98.9439 120.547 98.9439 120.547 97.3328C122.157 98.9439 120.547 98.9439 120.547 97.3328C120.547 98.9439 120.547 98.9439 120.547 97.3328C120.547 98.9439 120.547 98.9439 120.547 97.3328ZM118.936 74.7774C117.326 74.7774 117.326 74.7774 118.936 74.7774V74.7774ZM110.884 86.0552C110.884 86.0552 110.884 87.6663 110.884 86.0552C109.274 86.0552 110.884 87.6663 110.884 86.0552ZM104.443 47.3887C104.443 47.3887 104.443 48.9998 104.443 47.3887C102.833 47.3887 104.443 47.3887 104.443 47.3887C106.053 47.3887 104.443 45.7776 104.443 47.3887ZM107.664 74.7774C109.274 74.7774 109.274 74.7774 107.664 74.7774C109.274 74.7774 109.274 74.7774 109.274 74.7774C109.274 76.3885 109.274 76.3885 107.664 74.7774C107.664 76.3885 107.664 76.3885 107.664 74.7774C107.664 76.3885 107.664 76.3885 107.664 74.7774ZM107.664 89.2773C107.664 89.2773 109.274 89.2773 107.664 89.2773C107.664 89.2773 107.664 90.8884 107.664 89.2773ZM104.443 79.6108C106.053 79.6108 106.053 79.6108 104.443 79.6108C106.053 79.6108 106.053 79.6108 104.443 79.6108C106.053 79.6108 106.053 79.6108 104.443 79.6108C107.664 79.6108 106.053 79.6108 104.443 79.6108C106.053 81.2219 106.053 81.2219 104.443 79.6108C106.053 81.2219 106.053 81.2219 104.443 79.6108ZM102.833 52.2221C104.443 52.2221 104.443 52.2221 102.833 52.2221C104.443 52.2221 104.443 52.2221 102.833 52.2221C104.443 52.2221 104.443 52.2221 102.833 52.2221C104.443 53.8332 104.443 53.8332 104.443 53.8332C104.443 53.8332 104.443 53.8332 102.833 52.2221C102.833 53.8332 102.833 52.2221 102.833 52.2221ZM101.222 42.5554C101.222 40.9443 101.222 42.5554 101.222 42.5554C102.833 40.9443 102.833 42.5554 101.222 42.5554ZM101.222 63.4998C101.222 61.8887 101.222 61.8887 101.222 63.4998C101.222 61.8887 102.833 61.8887 101.222 63.4998C102.833 61.8887 104.443 63.4998 102.833 63.4998V65.1108C101.222 65.1108 101.222 65.1109 101.222 63.4998ZM99.6117 55.4442C98.0013 55.4442 99.6117 57.0553 99.6117 55.4442V55.4442ZM98.0014 50.6109C99.6117 50.6109 99.6117 52.222 98.0014 50.6109C98.0014 52.222 98.0014 52.222 98.0014 50.6109ZM96.391 52.2221C94.7806 52.2221 96.391 52.2221 96.391 52.2221C94.7806 52.2221 94.7806 52.2221 96.391 52.2221C94.7806 52.2221 94.7806 52.2221 96.391 52.2221C96.391 52.2221 94.7806 52.2221 96.391 52.2221ZM96.391 63.4998C94.7806 63.4998 96.391 63.4998 96.391 63.4998C94.7806 61.8887 94.7806 61.8887 96.391 63.4998C96.391 61.8887 96.391 60.2775 96.391 63.4998C96.391 61.8887 96.391 61.8887 96.391 63.4998ZM96.391 76.3886C96.391 74.7775 96.391 76.3886 96.391 76.3886C96.391 74.7775 96.391 74.7775 96.391 76.3886C96.391 74.7775 96.391 73.1663 96.391 74.7774C98.0014 74.7774 98.0014 74.7775 96.391 76.3886C98.0014 74.7775 98.0014 74.7775 96.391 76.3886C98.0014 74.7775 98.0014 74.7775 96.391 76.3886C98.0014 76.3886 96.391 76.3886 96.391 76.3886ZM96.391 84.4441C96.391 82.833 96.391 84.4441 96.391 84.4441C96.391 84.4441 98.0014 84.4441 96.391 84.4441ZM96.391 81.2218C94.7806 81.2218 94.7806 81.2218 96.391 81.2218V81.2218ZM93.1703 60.2776C93.1703 58.6665 93.1703 60.2776 93.1703 60.2776C91.5599 58.6665 93.1703 58.6665 93.1703 60.2776C93.1703 60.2776 93.1703 58.6665 93.1703 60.2776ZM93.1703 68.3331C91.5599 68.3331 91.5599 68.3331 93.1703 68.3331V68.3331ZM89.9495 65.1108C91.5599 65.1108 91.5599 66.7219 89.9495 65.1108C89.9495 66.7219 89.9495 66.7219 89.9495 65.1108ZM88.3391 63.4998C89.9495 63.4998 89.9495 63.4998 88.3391 63.4998C88.3391 63.4998 88.3391 65.1109 88.3391 63.4998Z" fill="url(#paint5_radial_1_4369)"/>
<path opacity="0.4" d="M85.1174 66.7219C86.7277 68.333 86.7277 69.9442 89.9484 69.9442C91.5588 69.9442 93.1692 69.9442 96.39 69.9442C94.7796 69.9442 94.7796 71.5552 94.7796 73.1663C93.1692 73.1663 91.5588 74.7775 91.5588 76.3886C91.5588 77.9997 93.1692 79.6108 94.7796 79.6108C94.7796 79.6108 94.7796 79.6107 94.7796 81.2218C94.7796 82.8329 93.1692 84.4441 94.7796 86.0552C96.39 89.2774 99.6107 89.2774 102.831 87.6663C102.831 90.8885 107.663 92.4996 110.883 92.4996L112.494 94.1107C114.104 94.1107 114.104 94.1107 115.714 94.1107C115.714 97.3329 118.935 100.555 122.156 102.166C123.766 102.166 125.377 102.166 126.987 102.166C128.597 100.555 130.208 103.777 131.818 102.166C133.429 102.166 133.429 100.555 133.429 98.9439C133.429 97.3328 136.649 97.3329 138.26 95.7218C139.87 95.7218 139.87 94.1107 139.87 92.4996C141.48 92.4996 141.48 92.4996 143.091 92.4996C143.091 95.7218 146.312 97.3328 149.532 97.3328C152.753 97.3328 154.363 95.7218 152.753 92.4996C154.363 90.8885 154.363 89.2774 152.753 87.6663C154.363 87.6663 155.974 87.6663 155.974 86.0552C159.195 86.0552 162.415 86.0551 162.415 82.8329C162.415 81.2218 162.415 79.6108 160.805 79.6108C164.026 81.2219 167.246 81.2219 168.857 77.9997C172.078 74.7775 167.246 71.5553 164.026 71.5553C164.026 69.9442 162.415 69.9442 162.415 69.9442C164.026 69.9442 165.636 69.9442 167.247 68.3331L168.857 66.7219C172.078 66.7219 176.909 65.1109 175.298 60.2776C175.298 60.2776 175.298 58.6664 173.688 58.6664C172.078 60.2775 173.688 63.4997 170.467 65.1108C168.857 66.7219 167.246 65.1108 164.026 65.1108H162.415C160.805 65.1108 160.805 65.1108 159.195 65.1108C157.584 65.1108 155.974 65.1108 155.974 65.1108C154.363 68.333 157.584 69.9442 160.805 71.5553C160.805 71.5553 164.026 71.5552 164.026 73.1663C165.636 77.9996 157.584 76.3885 155.974 74.7774C154.363 73.1663 155.974 79.6108 154.363 79.6108L149.532 81.2218C147.922 81.2218 147.922 81.2219 146.312 79.6108C146.312 77.9997 144.701 77.9997 144.701 76.3886C144.701 74.7775 143.091 73.1663 143.091 74.7774H141.481C141.481 73.1663 141.48 73.1664 139.87 71.5553C138.26 73.1664 138.26 73.1663 138.26 74.7774V76.3886C138.26 77.9997 138.26 79.6108 136.649 79.6108V81.2218C136.649 82.8329 135.039 82.8329 135.039 81.2218C133.429 82.8329 133.429 82.833 131.818 84.4441C131.818 84.4441 131.818 86.0552 130.208 86.0552C130.208 86.0552 130.208 86.0552 130.208 84.4441C128.597 84.4441 126.987 84.444 126.987 82.8329C126.987 82.8329 125.377 81.2219 125.377 79.6108C125.377 77.9997 123.766 77.9997 122.156 76.3886C120.546 74.7775 120.546 73.1664 122.156 71.5553C123.766 68.3331 128.597 69.9441 126.987 65.1108C126.987 63.4997 126.987 61.8887 125.377 60.2776C125.377 58.6665 123.766 58.6664 123.766 58.6664C123.766 60.2775 123.766 61.8887 123.766 61.8887C122.156 63.4998 122.156 63.4997 120.546 65.1108C118.935 68.333 115.714 71.5553 112.494 71.5553C110.883 71.5553 109.273 71.5553 107.663 71.5553C106.052 71.5553 106.052 69.9442 106.052 69.9442C106.052 68.3331 106.052 68.333 106.052 66.7219C106.052 65.1108 107.663 63.4998 106.052 63.4998C106.052 63.4998 104.442 63.4998 104.442 61.8887C101.221 58.6665 110.883 55.4443 106.052 53.8332C102.831 52.2221 101.221 50.6109 101.221 47.3887C101.221 44.1665 99.6108 40.9444 101.221 37.7222C101.221 36.1111 101.221 36.1111 102.831 36.1111C101.221 36.1111 101.221 37.7221 99.6107 39.3332V42.5554C98.0003 42.5554 98.0003 42.5554 96.39 42.5554C94.7796 42.5554 94.7796 44.1666 96.39 45.7777C93.1692 47.3888 94.7796 50.611 96.39 52.2221C94.7796 52.2221 91.5588 53.8331 89.9484 55.4442V57.0553C85.1173 60.2775 83.507 61.8886 85.1174 66.7219ZM125.377 68.3331C125.377 68.3331 125.377 69.9442 125.377 68.3331C123.766 68.3331 123.766 69.9442 125.377 68.3331ZM165.636 76.3886C165.636 76.3886 165.636 77.9997 165.636 76.3886C164.026 76.3886 164.026 77.9997 165.636 76.3886ZM165.636 74.7774C165.636 74.7774 165.636 76.3885 165.636 74.7774C164.026 74.7774 164.026 76.3885 165.636 74.7774ZM154.363 77.9997C155.974 77.9997 155.974 77.9997 157.584 79.6108C157.584 81.2219 155.974 81.2218 155.974 81.2218C155.974 81.2218 155.974 81.2218 154.363 81.2218C154.363 79.6107 154.363 77.9997 154.363 77.9997ZM146.312 86.0552H147.922C147.922 86.0552 149.532 86.0552 149.532 87.6663C149.532 87.6663 149.532 89.2773 147.922 89.2773H146.312C144.701 87.6662 144.701 86.0552 146.312 86.0552ZM143.091 82.8329C141.48 81.2218 141.48 82.8329 143.091 82.8329C143.091 81.2218 143.091 82.8329 143.091 82.8329ZM143.091 87.6663C143.091 87.6663 143.091 89.2774 143.091 87.6663C141.48 87.6663 141.48 89.2774 143.091 87.6663ZM122.156 81.2218C120.546 81.2218 122.156 81.2218 122.156 81.2218C120.546 79.6107 120.546 79.6107 122.156 81.2218C122.156 79.6107 120.546 79.6107 122.156 81.2218C122.156 79.6107 122.156 79.6107 122.156 81.2218ZM122.156 92.4996C120.546 92.4996 122.156 92.4996 122.156 92.4996V92.4996ZM120.546 97.3328C120.546 95.7217 120.546 95.7217 120.546 97.3328C120.546 97.3328 122.156 97.3328 120.546 97.3328C122.156 97.3328 122.156 97.3328 120.546 97.3328C120.546 98.9439 120.546 98.9439 120.546 97.3328C120.546 98.9439 120.546 98.9439 120.546 97.3328C120.546 98.9439 120.546 98.9439 120.546 97.3328C122.156 98.9439 120.546 98.9439 120.546 97.3328C120.546 98.9439 120.546 98.9439 120.546 97.3328C120.546 98.9439 120.546 98.9439 120.546 97.3328ZM118.935 74.7774C117.325 74.7774 117.325 74.7774 118.935 74.7774V74.7774ZM110.883 86.0552C110.883 86.0552 110.883 87.6663 110.883 86.0552C109.273 86.0552 110.883 87.6663 110.883 86.0552ZM107.663 89.2773C107.663 89.2773 109.273 89.2773 107.663 89.2773C107.663 89.2773 107.663 90.8884 107.663 89.2773ZM104.442 79.6108C106.052 79.6108 106.052 79.6108 104.442 79.6108C106.052 79.6108 106.052 79.6108 104.442 79.6108C106.052 79.6108 106.052 79.6108 104.442 79.6108C107.663 79.6108 106.052 79.6108 104.442 79.6108C106.052 81.2219 106.052 81.2219 104.442 79.6108C106.052 81.2219 106.052 81.2219 104.442 79.6108ZM101.221 63.4998C101.221 61.8887 101.221 61.8887 101.221 63.4998C101.221 61.8887 102.832 61.8887 101.221 63.4998C102.832 61.8887 104.442 63.4998 102.831 63.4998V65.1108C101.221 65.1108 101.221 65.1109 101.221 63.4998ZM99.6107 55.4442C98.0003 55.4442 99.6107 57.0553 99.6107 55.4442V55.4442ZM98.0003 50.6109C99.6107 50.6109 99.6107 52.222 98.0003 50.6109C98.0003 52.222 98.0003 52.222 98.0003 50.6109ZM96.39 52.2221C94.7796 52.2221 96.39 52.2221 96.39 52.2221C94.7796 52.2221 94.7796 52.2221 96.39 52.2221C94.7796 52.2221 94.7796 52.2221 96.39 52.2221C96.39 52.2221 94.7796 52.2221 96.39 52.2221ZM96.39 63.4998C94.7796 63.4998 96.39 63.4998 96.39 63.4998C94.7796 61.8887 94.7796 61.8887 96.39 63.4998C96.39 61.8887 96.39 60.2775 96.39 63.4998C96.39 61.8887 96.39 61.8887 96.39 63.4998ZM96.39 76.3886C96.39 74.7775 96.39 76.3886 96.39 76.3886C96.39 74.7775 96.39 74.7775 96.39 76.3886C96.39 74.7775 96.39 73.1663 96.39 74.7774C98.0003 74.7774 98.0003 74.7775 96.39 76.3886C98.0003 74.7775 98.0003 74.7775 96.39 76.3886C98.0003 74.7775 98.0003 74.7775 96.39 76.3886C98.0003 76.3886 96.39 76.3886 96.39 76.3886ZM96.39 84.4441C96.39 82.833 96.39 84.4441 96.39 84.4441C96.39 84.4441 98.0003 84.4441 96.39 84.4441ZM96.39 81.2218C94.7796 81.2218 94.7796 81.2218 96.39 81.2218V81.2218ZM93.1693 60.2776C93.1693 58.6665 93.1693 60.2776 93.1693 60.2776C91.5589 58.6665 93.1693 58.6665 93.1693 60.2776C93.1693 60.2776 93.1693 58.6665 93.1693 60.2776ZM93.1693 68.3331C91.5589 68.3331 91.5589 68.3331 93.1693 68.3331V68.3331ZM89.9484 65.1108C91.5588 65.1108 91.5588 66.7219 89.9484 65.1108C89.9484 66.7219 89.9484 66.7219 89.9484 65.1108ZM88.3381 63.4998C89.9485 63.4998 89.9485 63.4998 88.3381 63.4998C88.3381 63.4998 88.3381 65.1109 88.3381 63.4998Z" fill="url(#paint6_radial_1_4369)"/>
<path opacity="0.4" d="M85.1177 66.7226C86.7281 68.3337 86.728 69.9449 89.9488 69.9449C91.5592 69.9449 93.1696 69.9449 96.3903 69.9449C94.7799 69.9449 94.78 71.5559 94.78 73.167C93.1696 73.167 91.5591 74.7782 91.5591 76.3893C91.5591 78.0004 93.1696 79.6114 94.78 79.6114C94.78 79.6114 94.78 79.6114 94.78 81.2225C94.78 82.8336 93.1696 84.4448 94.78 86.0559C96.3903 89.2781 99.6111 89.2781 102.832 87.667C102.832 90.8892 107.663 92.5003 110.884 92.5003L112.494 94.1114C114.104 94.1114 114.104 94.1114 115.715 94.1114C115.715 97.3336 118.936 100.556 122.156 102.167C123.767 102.167 125.377 102.167 126.987 102.167C128.598 100.556 130.208 103.778 131.819 102.167C133.429 102.167 133.429 100.556 133.429 98.9446C133.429 97.3335 136.65 97.3336 138.26 95.7225C139.87 95.7225 139.87 94.1114 139.87 92.5003C141.481 92.5003 141.481 92.5003 143.091 92.5003C143.091 95.7225 146.312 97.3335 149.533 97.3335C152.754 97.3335 154.364 95.7225 152.753 92.5003C154.364 90.8892 154.364 89.2781 152.753 87.667C154.364 87.667 155.974 87.667 155.974 86.0559C159.195 86.0559 162.416 86.0558 162.416 82.8336C162.416 81.2225 162.416 79.6114 160.805 79.6114C162.416 79.6114 165.637 81.2225 167.247 79.6114C167.247 79.6114 165.637 79.6115 165.637 78.0004C164.026 78.0004 160.805 76.3892 160.805 79.6114C160.805 81.2225 162.416 81.2225 162.416 82.8336C162.416 84.4447 160.805 86.0559 159.195 86.0559C157.585 86.0559 155.974 86.0559 155.974 86.0559C152.753 86.0559 152.754 87.667 149.533 87.667C147.922 87.667 147.922 87.667 146.312 87.667C143.091 86.0559 141.481 87.6669 139.87 89.278C139.87 89.278 138.26 90.8891 136.65 90.8891C133.429 90.8891 133.429 92.5003 131.819 92.5003C128.598 94.1114 126.987 94.1114 123.767 92.5003C120.546 90.8892 120.546 87.667 117.325 86.0559C115.715 86.0559 114.104 86.0559 112.494 86.0559C110.884 86.0559 109.273 82.8337 107.663 84.4448C106.053 86.0559 104.442 84.4448 101.221 84.4448C99.6111 84.4448 96.3903 82.8336 96.3903 79.6114C96.3903 78.0003 98.0006 76.3892 99.611 74.7781C101.221 73.167 99.611 68.3337 98.0007 66.7226C96.3903 65.1115 93.1695 66.7226 91.5591 65.1115C89.9488 63.5004 91.5591 61.8894 91.5591 60.2783C91.5591 58.6672 91.5591 60.2783 91.5591 60.2783C94.7799 58.6672 98.0007 57.0561 94.78 52.2228L93.1696 50.6116C89.9489 52.2227 91.5592 55.4449 93.1696 57.056C91.5592 57.056 88.3385 58.6672 86.7281 60.2783V61.8894C85.1177 60.2783 83.5074 61.8893 85.1177 66.7226ZM94.78 52.2228C94.78 52.2228 96.3903 52.2228 94.78 52.2228C96.3903 52.2228 96.3903 52.2228 94.78 52.2228C96.3903 52.2228 94.78 52.2228 94.78 52.2228ZM143.091 87.667C143.091 87.667 143.091 89.2781 143.091 87.667C141.481 87.667 141.481 89.2781 143.091 87.667ZM122.156 92.5003C120.546 92.5003 122.156 92.5003 122.156 92.5003V92.5003ZM120.546 97.3335C120.546 95.7224 120.546 95.7224 120.546 97.3335C120.546 97.3335 122.156 97.3335 120.546 97.3335C122.156 97.3335 122.156 97.3335 120.546 97.3335C120.546 98.9446 120.546 98.9446 120.546 97.3335C120.546 98.9446 120.546 98.9446 120.546 97.3335C120.546 98.9446 120.546 98.9446 120.546 97.3335C122.156 98.9446 120.546 98.9446 120.546 97.3335C120.546 98.9446 120.546 98.9446 120.546 97.3335C120.546 98.9446 120.546 98.9446 120.546 97.3335ZM110.884 86.0559C110.884 86.0559 110.884 87.667 110.884 86.0559C109.273 86.0559 110.884 87.667 110.884 86.0559ZM107.663 89.278C107.663 89.278 109.273 89.278 107.663 89.278C107.663 89.278 107.663 90.8891 107.663 89.278ZM96.3903 74.7781C96.3903 73.167 98.0007 71.5559 98.0007 73.167C98.0007 74.7781 98.0007 74.7781 96.3903 74.7781C98.0007 74.7781 98.0007 74.7781 96.3903 74.7781C98.0007 76.3892 96.3903 76.3892 96.3903 74.7781C96.3903 76.3892 96.3903 74.7781 96.3903 74.7781ZM96.3903 84.4448C96.3903 82.8337 96.3903 84.4448 96.3903 84.4448C96.3903 84.4448 98.0007 84.4448 96.3903 84.4448ZM96.3903 81.2225C94.7799 81.2225 94.7799 81.2225 96.3903 81.2225V81.2225ZM93.1696 68.3338C91.5592 68.3338 91.5592 68.3338 93.1696 68.3338V68.3338ZM89.9488 65.1115C91.5592 65.1115 91.5592 66.7226 89.9488 65.1115C89.9488 66.7226 89.9488 66.7226 89.9488 65.1115ZM88.3384 63.5004C89.9488 63.5004 89.9488 63.5004 88.3384 63.5004C88.3384 63.5004 88.3384 65.1115 88.3384 63.5004Z" fill="url(#paint7_radial_1_4369)"/>
<path opacity="0.2" d="M120.546 42.5554C125.377 44.1665 125.377 50.6109 131.818 50.6109C133.429 50.6109 135.039 50.611 135.039 52.2221C135.039 52.2221 135.039 52.2221 135.039 53.8332C136.65 55.4443 136.65 55.4442 138.26 57.0553C138.26 57.0553 138.26 57.0554 138.26 55.4443V57.0553C139.87 58.6664 141.481 58.6664 143.091 58.6664C144.701 58.6664 144.701 55.4443 144.701 53.8332C144.701 48.9999 149.533 52.2221 152.753 52.2221C155.974 52.2221 155.974 52.2221 157.584 55.4443C157.584 57.0554 157.584 57.0553 159.195 57.0553C159.195 57.0553 160.805 58.6664 162.416 58.6664H164.026C165.636 58.6664 164.026 57.0553 164.026 57.0553C164.026 55.4442 164.026 53.8332 160.805 53.8332C157.584 53.8332 159.195 50.6109 157.584 48.9998C157.584 47.3887 155.974 47.3888 154.364 47.3888C151.143 47.3888 152.753 45.7777 151.143 44.1666C151.143 44.1666 149.533 44.1666 147.922 44.1666C146.312 45.7777 146.312 42.5554 144.701 42.5554H143.091V44.1666C143.091 45.7777 143.091 45.7777 143.091 47.3888C143.091 47.3888 141.481 52.222 139.87 48.9998C139.87 47.3887 139.87 47.3888 138.26 47.3888C136.65 45.7777 135.039 44.1666 133.429 44.1666C133.429 44.1666 131.818 42.5555 131.818 44.1666C131.818 44.1666 130.208 45.7777 130.208 47.3888C130.208 45.7777 128.598 44.1666 128.598 44.1666C126.987 42.5555 125.377 42.5554 123.766 42.5554C118.935 40.9443 118.935 42.5554 120.546 42.5554ZM159.195 53.8332C159.195 53.8332 159.195 55.4443 159.195 53.8332C159.195 53.8332 159.195 55.4443 159.195 53.8332ZM147.922 48.9998C147.922 47.3887 149.533 47.3887 147.922 48.9998C149.533 48.9998 149.533 48.9998 149.533 48.9998C151.143 48.9998 149.533 50.6109 147.922 48.9998C149.533 50.6109 147.922 50.6109 147.922 48.9998ZM130.208 45.7777C130.208 44.1666 130.208 44.1666 130.208 45.7777C131.818 45.7777 131.818 45.7777 131.818 45.7777C131.818 45.7777 131.818 45.7777 131.818 47.3888C131.818 45.7777 131.818 45.7777 130.208 45.7777C131.818 45.7777 131.818 45.7777 130.208 45.7777C131.818 47.3888 130.208 45.7777 130.208 45.7777Z" fill="#FFF791"/>
<path opacity="0.2" d="M109.273 45.7778C109.273 47.3889 110.883 49 112.493 50.6111C114.104 52.2222 112.493 55.4444 114.104 57.0555C114.104 58.6666 118.935 60.2778 117.325 60.2778C115.714 61.8889 115.714 63.4999 115.714 66.7221C115.714 66.7221 115.714 68.3333 117.325 68.3333C118.935 68.3333 122.156 68.3332 123.766 66.7221C125.376 65.111 123.766 63.4999 126.987 61.8888C128.597 61.8888 126.987 58.6666 125.376 57.0555C123.766 57.0555 123.766 57.0555 122.156 57.0555C120.545 55.4444 120.545 55.4444 120.545 53.8333C120.545 52.2222 120.545 52.2222 118.935 50.6111C117.324 49 115.714 49 114.104 49C114.104 49 114.104 47.3889 112.493 45.7778C110.883 45.7778 110.883 45.7778 109.273 45.7778C109.273 45.7778 107.662 45.7778 109.273 45.7778ZM117.325 57.0555C117.325 55.4444 117.325 57.0555 117.325 57.0555C117.325 55.4444 117.324 55.4444 118.935 55.4444C118.935 55.4444 118.935 55.4444 120.545 55.4444C120.545 55.4444 120.545 55.4444 118.935 55.4444C118.935 57.0555 118.935 57.0555 117.325 57.0555Z" fill="#FFF791"/>
<path d="M110.886 57.0557C110.886 57.0557 112.495 58.6668 110.886 57.0557C110.886 58.6668 112.495 58.6668 110.886 57.0557C110.886 58.6668 110.886 58.6668 110.886 57.0557C110.886 58.6668 110.886 57.0557 110.886 57.0557Z" fill="#F15A22"/>
<path d="M109.274 60.2783C110.884 61.8894 110.884 61.8894 109.274 60.2783C109.274 61.8894 109.274 61.8894 109.274 60.2783C109.274 61.8894 109.274 61.8894 109.274 60.2783C109.274 61.8894 109.274 61.8894 109.274 60.2783C109.274 61.8894 109.274 60.2783 109.274 60.2783Z" fill="#F15A22"/>
<path d="M114.106 61.8896C115.715 61.8896 115.715 61.8896 114.106 61.8896C115.715 61.8896 115.715 61.8896 114.106 61.8896C115.715 61.8896 115.715 61.8896 114.106 61.8896C115.715 63.5007 115.715 63.5007 114.106 61.8896C114.106 63.5007 114.106 63.5007 114.106 61.8896C114.106 63.5007 114.106 63.5007 114.106 61.8896Z" fill="#F15A22"/>
<path d="M114.106 82.8333C114.106 82.8333 115.715 82.8333 114.106 82.8333C115.715 82.8333 115.715 82.8333 114.106 82.8333C115.715 84.4444 115.715 82.8333 114.106 82.8333Z" fill="#F15A22"/>
<path d="M143.093 49.0002C143.093 49.0002 144.702 49.0002 143.093 49.0002C143.093 50.6113 143.093 50.6113 143.093 49.0002C143.093 50.6113 143.093 50.6113 143.093 49.0002C141.484 49.0002 141.484 49.0002 143.093 49.0002Z" fill="#F15A22"/>
<path d="M141.481 52.2229C141.481 52.2229 141.481 53.834 141.481 52.2229C141.481 53.834 141.481 53.834 141.481 52.2229C139.872 52.2229 139.872 52.2229 141.481 52.2229C139.872 52.2229 139.872 52.2229 141.481 52.2229Z" fill="#F15A22"/>
<defs>
<radialGradient id="paint0_radial_1_4369" cx="0" cy="0" r="1" gradientUnits="userSpaceOnUse" gradientTransform="translate(105.72 -3.68514) rotate(176.22) scale(122.154 122.208)">
<stop offset="0.1008" stop-color="#B6D554"/>
<stop offset="0.5076" stop-color="#4D9C44"/>
<stop offset="1" stop-color="#00A04A"/>
</radialGradient>
<radialGradient id="paint1_radial_1_4369" cx="0" cy="0" r="1" gradientUnits="userSpaceOnUse" gradientTransform="translate(105.72 -3.67353) rotate(176.22) scale(122.149 122.203)">
<stop offset="0.1008" stop-color="#B6D554"/>
<stop offset="0.5143" stop-color="#91C84B"/>
<stop offset="1" stop-color="#00A04A"/>
</radialGradient>
<radialGradient id="paint2_radial_1_4369" cx="0" cy="0" r="1" gradientUnits="userSpaceOnUse" gradientTransform="translate(105.718 -3.68189) rotate(176.22) scale(122.152 122.207)">
<stop offset="0.1008" stop-color="#B6D554"/>
<stop offset="0.5143" stop-color="#91C84B"/>
<stop offset="1" stop-color="#00A04A"/>
</radialGradient>
<radialGradient id="paint3_radial_1_4369" cx="0" cy="0" r="1" gradientUnits="userSpaceOnUse" gradientTransform="translate(105.723 -3.68061) rotate(176.22) scale(122.154 122.208)">
<stop offset="0.1008" stop-color="#B6D554"/>
<stop offset="0.5143" stop-color="#91C84B"/>
<stop offset="1" stop-color="#00A04A"/>
</radialGradient>
<radialGradient id="paint4_radial_1_4369" cx="0" cy="0" r="1" gradientUnits="userSpaceOnUse" gradientTransform="translate(152.716 30.8873) rotate(176.22) scale(79.5248 79.5604)">
<stop offset="0.1008" stop-color="#B6D554"/>
<stop offset="0.5076" stop-color="#4D9C44"/>
<stop offset="1" stop-color="#00A04A"/>
</radialGradient>
<radialGradient id="paint5_radial_1_4369" cx="0" cy="0" r="1" gradientUnits="userSpaceOnUse" gradientTransform="translate(152.717 30.8931) rotate(176.22) scale(79.5216 79.5571)">
<stop offset="0.1008" stop-color="#B6D554"/>
<stop offset="0.5143" stop-color="#91C84B"/>
<stop offset="1" stop-color="#00A04A"/>
</radialGradient>
<radialGradient id="paint6_radial_1_4369" cx="0" cy="0" r="1" gradientUnits="userSpaceOnUse" gradientTransform="translate(152.717 30.9075) rotate(176.22) scale(79.5136 79.5491)">
<stop offset="0.1008" stop-color="#B6D554"/>
<stop offset="0.5143" stop-color="#91C84B"/>
<stop offset="1" stop-color="#00A04A"/>
</radialGradient>
<radialGradient id="paint7_radial_1_4369" cx="0" cy="0" r="1" gradientUnits="userSpaceOnUse" gradientTransform="translate(152.697 30.8949) rotate(176.22) scale(79.5088 79.5444)">
<stop offset="0.1008" stop-color="#B6D554"/>
<stop offset="0.5143" stop-color="#91C84B"/>
<stop offset="1" stop-color="#00A04A"/>
</radialGradient>
</defs>
</svg>
